<?plantuml 1.2026.2?><svg xmlns="http://www.w3.org/2000/svg" xmlns:xlink="http://www.w3.org/1999/xlink" contentStyleType="text/css" data-diagram-type="SEQUENCE" height="350px" preserveAspectRatio="none" style="width:587px;height:350px;background:#FFFFFF;" version="1.1" viewBox="0 0 587 350" width="587px" zoomAndPan="magnify"><defs/><g><g><title>.UI</title><rect fill="#1D8900" height="213.2422" style="stroke:#181818;stroke-width:1;" width="10" x="102.355" y="112.4092"/></g><g><title>.Logic</title><rect fill="#3333C4" height="169.9316" style="stroke:#181818;stroke-width:1;" width="10" x="249.6753" y="141.7197"/></g><g><title>.Model</title><rect fill="#9D0012" height="14" style="stroke:#181818;stroke-width:1;" width="10" x="393.1807" y="171.0303"/></g><g><title>.Storage</title><rect fill="#A38300" height="83.3105" style="stroke:#181818;stroke-width:1;" width="10" x="490.0781" y="214.3408"/></g><g><title>.Storage</title><rect fill="#FFE374" height="25" style="stroke:#181818;stroke-width:1;" width="10" x="495.0781" y="251.6514"/></g><g class="participant-lifeline" data-entity-uid="part1" data-qualified-name="user" id="part1-lifeline"><g><title>User</title><rect fill="#000000" fill-opacity="0.00000" height="262.5527" width="8" x="18.7793" y="81.0986"/><line style="stroke:#181818;stroke-width:0.5;stroke-dasharray:5,5;" x1="22" x2="22" y1="81.0986" y2="343.6514"/></g></g><g class="participant-lifeline" data-entity-uid="part2" data-qualified-name="ui" id="part2-lifeline"><g><title>.UI</title><rect fill="#000000" fill-opacity="0.00000" height="262.5527" width="8" x="103.355" y="81.0986"/><line style="stroke:#181818;stroke-width:0.5;stroke-dasharray:5,5;" x1="107.355" x2="107.355" y1="81.0986" y2="343.6514"/></g></g><g class="participant-lifeline" data-entity-uid="part3" data-qualified-name="logic" id="part3-lifeline"><g><title>.Logic</title><rect fill="#000000" fill-opacity="0.00000" height="262.5527" width="8" x="250.6753" y="81.0986"/><line style="stroke:#181818;stroke-width:0.5;stroke-dasharray:5,5;" x1="254.6753" x2="254.6753" y1="81.0986" y2="343.6514"/></g></g><g class="participant-lifeline" data-entity-uid="part4" data-qualified-name="model" id="part4-lifeline"><g><title>.Model</title><rect fill="#000000" fill-opacity="0.00000" height="262.5527" width="8" x="394.1807" y="81.0986"/><line style="stroke:#181818;stroke-width:0.5;stroke-dasharray:5,5;" x1="398.1807" x2="398.1807" y1="81.0986" y2="343.6514"/></g></g><g class="participant-lifeline" data-entity-uid="part5" data-qualified-name="storage" id="part5-lifeline"><g><title>.Storage</title><rect fill="#000000" fill-opacity="0.00000" height="262.5527" width="8" x="491.0781" y="81.0986"/><line style="stroke:#181818;stroke-width:0.5;stroke-dasharray:5,5;" x1="494.1807" x2="494.1807" y1="81.0986" y2="343.6514"/></g></g><g class="participant participant-head" data-entity-uid="part1" data-qualified-name="user" id="part1-head"><text fill="#000000" font-family="Arial" font-size="14" lengthAdjust="spacing" textLength="29.5586" x="5" y="78.1318">User</text><ellipse cx="22.7793" cy="13.5" fill="#000000" rx="8" ry="8" style="stroke:#000000;stroke-width:0.5;"/><path d="M22.7793,21.5 L22.7793,48.5 M9.7793,29.5 L35.7793,29.5 M22.7793,48.5 L9.7793,63.5 M22.7793,48.5 L35.7793,63.5" fill="none" style="stroke:#000000;stroke-width:0.5;"/></g><g class="participant participant-head" data-entity-uid="part2" data-qualified-name="ui" id="part2-head"><rect fill="#1D8900" height="30.4883" rx="2.5" ry="2.5" style="stroke:#181818;stroke-width:0.5;" width="64" x="75.355" y="49.6104"/><text fill="#FFFFFF" font-family="sans-serif" font-size="14" lengthAdjust="spacing" textLength="18.1631" x="98.2734" y="70.1455">:UI</text></g><g class="participant participant-head" data-entity-uid="part3" data-qualified-name="logic" id="part3-head"><rect fill="#3333C4" height="30.4883" rx="2.5" ry="2.5" style="stroke:#181818;stroke-width:0.5;" width="64" x="222.6753" y="49.6104"/><text fill="#FFFFFF" font-family="sans-serif" font-size="14" lengthAdjust="spacing" textLength="40.4414" x="234.4546" y="70.1455">:Logic</text></g><g class="participant participant-head" data-entity-uid="part4" data-qualified-name="model" id="part4-head"><rect fill="#9D0012" height="30.4883" rx="2.5" ry="2.5" style="stroke:#181818;stroke-width:0.5;" width="64" x="366.1807" y="49.6104"/><text fill="#FFFFFF" font-family="sans-serif" font-size="14" lengthAdjust="spacing" textLength="45.7461" x="375.3076" y="70.1455">:Model</text></g><g class="participant participant-head" data-entity-uid="part5" data-qualified-name="storage" id="part5-head"><rect fill="#A38300" height="30.4883" rx="2.5" ry="2.5" style="stroke:#181818;stroke-width:0.5;" width="69.7949" x="460.1807" y="49.6104"/><text fill="#FFFFFF" font-family="sans-serif" font-size="14" lengthAdjust="spacing" textLength="55.7949" x="467.1807" y="70.1455">:Storage</text></g><g><title>.UI</title><rect fill="#1D8900" height="213.2422" style="stroke:#181818;stroke-width:1;" width="10" x="102.355" y="112.4092"/></g><g><title>.Logic</title><rect fill="#3333C4" height="169.9316" style="stroke:#181818;stroke-width:1;" width="10" x="249.6753" y="141.7197"/></g><g><title>.Model</title><rect fill="#9D0012" height="14" style="stroke:#181818;stroke-width:1;" width="10" x="393.1807" y="171.0303"/></g><g><title>.Storage</title><rect fill="#A38300" height="83.3105" style="stroke:#181818;stroke-width:1;" width="10" x="490.0781" y="214.3408"/></g><g><title>.Storage</title><rect fill="#FFE374" height="25" style="stroke:#181818;stroke-width:1;" width="10" x="495.0781" y="251.6514"/></g><g class="message" data-entity-1="part1" data-entity-2="part2" id="msg1"><polygon fill="#000000" points="90.355,108.4092,100.355,112.4092,90.355,116.4092,94.355,112.4092" style="stroke:#000000;stroke-width:1;"/><line style="stroke:#000000;stroke-width:1;" x1="22.7793" x2="96.355" y1="112.4092" y2="112.4092"/><text fill="#000000" font-family="sans-serif" font-size="13" lengthAdjust="spacing" textLength="60.5757" x="32.2793" y="107.667">"delete 1"</text></g><g class="message" data-entity-1="part2" data-entity-2="part3" id="msg2"><polygon fill="#1D8900" points="237.6753,137.7197,247.6753,141.7197,237.6753,145.7197,241.6753,141.7197" style="stroke:#1D8900;stroke-width:1;"/><line style="stroke:#1D8900;stroke-width:1;" x1="112.355" x2="243.6753" y1="141.7197" y2="141.7197"/><text fill="#000000" font-family="sans-serif" font-size="13" lengthAdjust="spacing" textLength="118.3203" x="121.855" y="136.9775">execute("delete 1")</text></g><g class="message" data-entity-1="part3" data-entity-2="part4" id="msg3"><polygon fill="#3333C4" points="381.1807,167.0303,391.1807,171.0303,381.1807,175.0303,385.1807,171.0303" style="stroke:#3333C4;stroke-width:1;"/><line style="stroke:#3333C4;stroke-width:1;" x1="259.6753" x2="387.1807" y1="171.0303" y2="171.0303"/><text fill="#000000" font-family="sans-serif" font-size="13" lengthAdjust="spacing" textLength="114.5054" x="269.1753" y="166.2881">deleteCompany(p)</text></g><g class="message" data-entity-1="part4" data-entity-2="part3" id="msg4"><polygon fill="#9D0012" points="270.6753,181.0303,260.6753,185.0303,270.6753,189.0303,266.6753,185.0303" style="stroke:#9D0012;stroke-width:1;"/><line style="stroke:#9D0012;stroke-width:1;stroke-dasharray:2,2;" x1="264.6753" x2="397.1807" y1="185.0303" y2="185.0303"/></g><g class="message" data-entity-1="part3" data-entity-2="part5" id="msg5"><polygon fill="#3333C4" points="478.0781,210.3408,488.0781,214.3408,478.0781,218.3408,482.0781,214.3408" style="stroke:#3333C4;stroke-width:1;"/><line style="stroke:#3333C4;stroke-width:1;" x1="259.6753" x2="484.0781" y1="214.3408" y2="214.3408"/><text fill="#000000" font-family="sans-serif" font-size="13" lengthAdjust="spacing" textLength="198.834" x="275.4597" y="209.5986">saveAddressBook(addressBook)</text></g><g class="message" data-entity-1="part5" data-entity-2="part5" id="msg6"><line style="stroke:#A38300;stroke-width:1;" x1="500.0781" x2="547.0781" y1="238.6514" y2="238.6514"/><line style="stroke:#A38300;stroke-width:1;" x1="547.0781" x2="547.0781" y1="238.6514" y2="251.6514"/><line style="stroke:#A38300;stroke-width:1;" x1="506.0781" x2="547.0781" y1="251.6514" y2="251.6514"/><polygon fill="#A38300" points="516.0781,247.6514,506.0781,251.6514,516.0781,255.6514,512.0781,251.6514" style="stroke:#A38300;stroke-width:1;"/><text fill="#000000" font-family="sans-serif" font-size="13" lengthAdjust="spacing" textLength="68.7642" x="512.0781" y="233.9092">Save to file</text></g><g class="message" data-entity-1="part5" data-entity-2="part5" id="msg7"><line style="stroke:#A38300;stroke-width:1;stroke-dasharray:2,2;" x1="505.0781" x2="547.0781" y1="275.6514" y2="275.6514"/><line style="stroke:#A38300;stroke-width:1;stroke-dasharray:2,2;" x1="547.0781" x2="547.0781" y1="275.6514" y2="288.6514"/><line style="stroke:#A38300;stroke-width:1;stroke-dasharray:2,2;" x1="500.0781" x2="547.0781" y1="288.6514" y2="288.6514"/><polygon fill="#A38300" points="510.0781,284.6514,500.0781,288.6514,510.0781,292.6514,506.0781,288.6514" style="stroke:#A38300;stroke-width:1;"/></g><g class="message" data-entity-1="part5" data-entity-2="part3" id="msg8"><polygon fill="#A38300" points="270.6753,293.6514,260.6753,297.6514,270.6753,301.6514,266.6753,297.6514" style="stroke:#A38300;stroke-width:1;"/><line style="stroke:#A38300;stroke-width:1;stroke-dasharray:2,2;" x1="264.6753" x2="494.0781" y1="297.6514" y2="297.6514"/></g><g class="message" data-entity-1="part3" data-entity-2="part2" id="msg9"><polygon fill="#3333C4" points="123.355,307.6514,113.355,311.6514,123.355,315.6514,119.355,311.6514" style="stroke:#3333C4;stroke-width:1;"/><line style="stroke:#3333C4;stroke-width:1;stroke-dasharray:2,2;" x1="117.355" x2="253.6753" y1="311.6514" y2="311.6514"/></g><g class="message" data-entity-1="part2" data-entity-2="part1" id="msg10"><polygon fill="#1D8900" points="33.7793,321.6514,23.7793,325.6514,33.7793,329.6514,29.7793,325.6514" style="stroke:#1D8900;stroke-width:1;"/><line style="stroke:#1D8900;stroke-width:1;stroke-dasharray:2,2;" x1="27.7793" x2="106.355" y1="325.6514" y2="325.6514"/></g><?plantuml-src XLBBReCm4BpxAxQSqWELSkLGYQPfX4H45S89HP45syYAmSWsQVFtDJW9fddqn3AUcPrTxHEh2zwM24eVERuqRSM9shEweP9M44eflZz4hTFk5HfEMKr8M6WX8LCeWIfeks-MpbVRMH8dA_99fMO5QsYjmGkooEj93BBe9Y4MErRq7DvL42UBQ7QJkHGbyfvPTHKia_TvV9EPcdnqXprNsHhITR8A5_CJd_If_Np8lNdjGWRW6MlK25EFq4Ap0pMrcvwO7wEBBYeREm3ymQBLE1aCdWU7wzc8XVpS0OsR7Iq0Qp8JbHdfE6aSg-lXYONyt04t_YaPAN4ilTVvlAW053rWM9OIbNeJOZ-XG-takBFOC-pdeuTHWzGq02tWYt7ynt2xdWwMTptT8S_G8zdLPYwYqsx-BgTbBjlApINueqleRigbjUmN?></g></svg>
