<?plantuml 1.2026.2?><svg xmlns="http://www.w3.org/2000/svg" xmlns:xlink="http://www.w3.org/1999/xlink" contentStyleType="text/css" data-diagram-type="SEQUENCE" height="526px" preserveAspectRatio="none" style="width:1075px;height:526px;background:#FFFFFF;" version="1.1" viewBox="0 0 1075 526" width="1075px" zoomAndPan="magnify"><defs/><g><rect fill="#C8C8FA" height="507.748" style="stroke:#181818;stroke-width:0.5;" width="894.8896" x="71.8657" y="6"/><text fill="#FFFFFF" font-family="sans-serif" font-size="13" font-weight="bold" lengthAdjust="spacing" textLength="35.585" x="499.3757" y="18.5684">Logic</text><rect fill="#F97181" height="507.748" style="stroke:#181818;stroke-width:0.5;" width="100.8164" x="968.7554" y="6"/><text fill="#FFFFFF" font-family="sans-serif" font-size="13" font-weight="bold" lengthAdjust="spacing" textLength="40.5615" x="996.7405" y="18.5684">Model</text><g><title>.LogicManager</title><rect fill="#FFFFFF" height="413.6387" style="stroke:#181818;stroke-width:1;" width="10" x="137.3203" y="88.1094"/></g><g><title>.AddressBookParser</title><rect fill="#FFFFFF" height="212.9082" style="stroke:#181818;stroke-width:1;" width="10" x="334.584" y="117.4199"/></g><g><title>.DeleteCommandParser</title><rect fill="#FFFFFF" height="31.4883" style="stroke:#181818;stroke-width:1;" width="10" x="525.5498" y="141.4199"/></g><g><title>.DeleteCommandParser</title><rect fill="#FFFFFF" height="84.7988" style="stroke:#181818;stroke-width:1;" width="10" x="525.5498" y="202.2188"/></g><g><title>d.DeleteCommand</title><rect fill="#FFFFFF" height="31.4883" style="stroke:#181818;stroke-width:1;" width="10" x="712.144" y="226.2188"/></g><g><title>d.DeleteCommand</title><rect fill="#FFFFFF" height="128.1094" style="stroke:#181818;stroke-width:1;" width="10" x="712.144" y="359.6387"/></g><g><title>r.CommandResult</title><rect fill="#FFFFFF" height="31.4883" style="stroke:#181818;stroke-width:1;" width="10" x="879.9668" y="426.9492"/></g><g><title>m.Model</title><rect fill="#FFFFFF" height="14" style="stroke:#181818;stroke-width:1;" width="10" x="1014.1636" y="388.9492"/></g><g class="participant-lifeline" data-entity-uid="part1" data-qualified-name="LogicManager" id="part1-lifeline"><g><title>.LogicManager</title><rect fill="#000000" fill-opacity="0.00000" height="462.9492" width="8" x="138.3203" y="56.7988"/><line style="stroke:#181818;stroke-width:0.5;stroke-dasharray:5,5;" x1="141.8657" x2="141.8657" y1="56.7988" y2="519.748"/></g></g><g class="participant-lifeline" data-entity-uid="part2" data-qualified-name="AddressBookParser" id="part2-lifeline"><g><title>.AddressBookParser</title><rect fill="#000000" fill-opacity="0.00000" height="462.9492" width="8" x="335.584" y="56.7988"/><line style="stroke:#181818;stroke-width:0.5;stroke-dasharray:5,5;" x1="339.1782" x2="339.1782" y1="56.7988" y2="519.748"/></g></g><g class="participant-lifeline" data-entity-uid="part3" data-qualified-name="DeleteCommandParser" id="part3-lifeline"><g><title>.DeleteCommandParser</title><rect fill="#000000" fill-opacity="0.00000" height="363.584" width="8" x="526.5498" y="156.1641"/><line style="stroke:#181818;stroke-width:0.5;stroke-dasharray:5,5;" x1="529.9897" x2="529.9897" y1="156.1641" y2="519.748"/></g></g><g class="participant-lifeline" data-entity-uid="part4" data-qualified-name="DeleteCommand" id="part4-lifeline"><g><title>d.DeleteCommand</title><rect fill="#000000" fill-opacity="0.00000" height="278.7852" width="8" x="713.144" y="240.9629"/><line style="stroke:#181818;stroke-width:0.5;stroke-dasharray:5,5;" x1="717.1099" x2="717.1099" y1="240.9629" y2="519.748"/></g></g><g class="participant-lifeline" data-entity-uid="part5" data-qualified-name="CommandResult" id="part5-lifeline"><g><title>r.CommandResult</title><rect fill="#000000" fill-opacity="0.00000" height="78.0547" width="8" x="880.9668" y="441.6934"/><line style="stroke:#181818;stroke-width:0.5;stroke-dasharray:5,5;" x1="884.1782" x2="884.1782" y1="441.6934" y2="519.748"/></g></g><g class="participant-lifeline" data-entity-uid="part6" data-qualified-name="Model" id="part6-lifeline"><g><title>m.Model</title><rect fill="#000000" fill-opacity="0.00000" height="462.9492" width="8" x="1015.1636" y="56.7988"/><line style="stroke:#181818;stroke-width:0.5;stroke-dasharray:5,5;" x1="1018.7554" x2="1018.7554" y1="56.7988" y2="519.748"/></g></g><g class="participant participant-head" data-entity-uid="part1" data-qualified-name="LogicManager" id="part1-head"><rect fill="#3333C4" height="30.4883" rx="2.5" ry="2.5" style="stroke:#181818;stroke-width:0.5;" width="112.9092" x="85.8657" y="25.3105"/><text fill="#FFFFFF" font-family="sans-serif" font-size="14" lengthAdjust="spacing" textLength="98.9092" x="92.8657" y="45.8457">:LogicManager</text></g><g class="participant participant-head" data-entity-uid="part2" data-qualified-name="AddressBookParser" id="part2-head"><rect fill="#3333C4" height="30.4883" rx="2.5" ry="2.5" style="stroke:#181818;stroke-width:0.5;" width="148.8115" x="265.1782" y="25.3105"/><text fill="#FFFFFF" font-family="sans-serif" font-size="14" lengthAdjust="spacing" textLength="134.8115" x="272.1782" y="45.8457">:AddressBookParser</text></g><g class="participant participant-head" data-entity-uid="part6" data-qualified-name="Model" id="part6-head"><rect fill="#9D0012" height="30.4883" rx="2.5" ry="2.5" style="stroke:#181818;stroke-width:0.5;" width="72.8164" x="982.7554" y="25.3105"/><text fill="#FFFFFF" font-family="sans-serif" font-size="14" lengthAdjust="spacing" textLength="58.8164" x="989.7554" y="45.8457">m:Model</text></g><g><title>.LogicManager</title><rect fill="#FFFFFF" height="413.6387" style="stroke:#181818;stroke-width:1;" width="10" x="137.3203" y="88.1094"/></g><g><title>.AddressBookParser</title><rect fill="#FFFFFF" height="212.9082" style="stroke:#181818;stroke-width:1;" width="10" x="334.584" y="117.4199"/></g><g><title>.DeleteCommandParser</title><rect fill="#FFFFFF" height="31.4883" style="stroke:#181818;stroke-width:1;" width="10" x="525.5498" y="141.4199"/></g><g><title>.DeleteCommandParser</title><rect fill="#FFFFFF" height="84.7988" style="stroke:#181818;stroke-width:1;" width="10" x="525.5498" y="202.2188"/></g><g><title>d.DeleteCommand</title><rect fill="#FFFFFF" height="31.4883" style="stroke:#181818;stroke-width:1;" width="10" x="712.144" y="226.2188"/></g><g><title>d.DeleteCommand</title><rect fill="#FFFFFF" height="128.1094" style="stroke:#181818;stroke-width:1;" width="10" x="712.144" y="359.6387"/></g><g><title>r.CommandResult</title><rect fill="#FFFFFF" height="31.4883" style="stroke:#181818;stroke-width:1;" width="10" x="879.9668" y="426.9492"/></g><g><title>m.Model</title><rect fill="#FFFFFF" height="14" style="stroke:#181818;stroke-width:1;" width="10" x="1014.1636" y="388.9492"/></g><g class="message" data-entity-1="part1" data-entity-2="part1" id="msg1"><polygon fill="#181818" points="125.3203,84.1094,135.3203,88.1094,125.3203,92.1094,129.3203,88.1094" style="stroke:#181818;stroke-width:1;"/><line style="stroke:#181818;stroke-width:1;" x1="0" x2="131.3203" y1="88.1094" y2="88.1094"/><text fill="#000000" font-family="sans-serif" font-size="13" lengthAdjust="spacing" textLength="118.3203" x="9.5" y="83.3672">execute("delete 1")</text></g><g class="message" data-entity-1="part1" data-entity-2="part2" id="msg2"><polygon fill="#181818" points="322.584,113.4199,332.584,117.4199,322.584,121.4199,326.584,117.4199" style="stroke:#181818;stroke-width:1;"/><line style="stroke:#181818;stroke-width:1;" x1="147.3203" x2="328.584" y1="117.4199" y2="117.4199"/><text fill="#000000" font-family="sans-serif" font-size="13" lengthAdjust="spacing" textLength="168.2637" x="156.8203" y="112.6777">parseCommand("delete 1")</text></g><g class="message" data-entity-1="part2" data-entity-2="part3" id="msg3"><polygon fill="#181818" points="431.9897,127.4199,441.9897,131.4199,431.9897,135.4199,435.9897,131.4199" style="stroke:#181818;stroke-width:1;"/><line style="stroke:#181818;stroke-width:1;" x1="344.584" x2="437.9897" y1="131.4199" y2="131.4199"/></g><rect fill="#3333C4" height="30.4883" rx="2.5" ry="2.5" style="stroke:#181818;stroke-width:0.5;" width="173.1201" x="443.9897" y="125.4199"/><text fill="#FFFFFF" font-family="sans-serif" font-size="14" lengthAdjust="spacing" textLength="159.1201" x="450.9897" y="145.9551">:DeleteCommandParser</text><g class="message" data-entity-1="part3" data-entity-2="part2" id="msg5"><polygon fill="#181818" points="355.584,168.9082,345.584,172.9082,355.584,176.9082,351.584,172.9082" style="stroke:#181818;stroke-width:1;"/><line style="stroke:#181818;stroke-width:1;stroke-dasharray:2,2;" x1="349.584" x2="529.5498" y1="172.9082" y2="172.9082"/></g><g class="message" data-entity-1="part2" data-entity-2="part3" id="msg6"><polygon fill="#181818" points="513.5498,198.2188,523.5498,202.2188,513.5498,206.2188,517.5498,202.2188" style="stroke:#181818;stroke-width:1;"/><line style="stroke:#181818;stroke-width:1;" x1="344.584" x2="519.5498" y1="202.2188" y2="202.2188"/><text fill="#000000" font-family="sans-serif" font-size="13" lengthAdjust="spacing" textLength="60.9375" x="404.5981" y="197.4766">parse("1")</text></g><g class="message" data-entity-1="part3" data-entity-2="part4" id="msg7"><polygon fill="#181818" points="635.1099,212.2188,645.1099,216.2188,635.1099,220.2188,639.1099,216.2188" style="stroke:#181818;stroke-width:1;"/><line style="stroke:#181818;stroke-width:1;" x1="535.5498" x2="641.1099" y1="216.2188" y2="216.2188"/></g><rect fill="#3333C4" height="30.4883" rx="2.5" ry="2.5" style="stroke:#181818;stroke-width:0.5;" width="140.0684" x="647.1099" y="210.2188"/><text fill="#FFFFFF" font-family="sans-serif" font-size="14" lengthAdjust="spacing" textLength="126.0684" x="654.1099" y="230.7539">d:DeleteCommand</text><g class="message" data-entity-1="part4" data-entity-2="part3" id="msg9"><polygon fill="#181818" points="546.5498,253.707,536.5498,257.707,546.5498,261.707,542.5498,257.707" style="stroke:#181818;stroke-width:1;"/><line style="stroke:#181818;stroke-width:1;stroke-dasharray:2,2;" x1="540.5498" x2="716.144" y1="257.707" y2="257.707"/></g><g class="message" data-entity-1="part3" data-entity-2="part2" id="msg10"><polygon fill="#181818" points="355.584,283.0176,345.584,287.0176,355.584,291.0176,351.584,287.0176" style="stroke:#181818;stroke-width:1;"/><line style="stroke:#181818;stroke-width:1;stroke-dasharray:2,2;" x1="349.584" x2="529.5498" y1="287.0176" y2="287.0176"/><text fill="#000000" font-family="sans-serif" font-size="13" lengthAdjust="spacing" textLength="8.1821" x="433.4758" y="282.2754">d</text></g><line style="stroke:#A80036;stroke-width:2;" x1="521.5498" x2="539.5498" y1="292.0176" y2="310.0176"/><line style="stroke:#A80036;stroke-width:2;" x1="521.5498" x2="539.5498" y1="310.0176" y2="292.0176"/><g class="message" data-entity-1="part2" data-entity-2="part1" id="msg12"><polygon fill="#181818" points="158.3203,326.3281,148.3203,330.3281,158.3203,334.3281,154.3203,330.3281" style="stroke:#181818;stroke-width:1;"/><line style="stroke:#181818;stroke-width:1;stroke-dasharray:2,2;" x1="152.3203" x2="338.584" y1="330.3281" y2="330.3281"/><text fill="#000000" font-family="sans-serif" font-size="13" lengthAdjust="spacing" textLength="8.1821" x="239.3611" y="325.5859">d</text></g><g class="message" data-entity-1="part1" data-entity-2="part4" id="msg13"><polygon fill="#181818" points="700.144,355.6387,710.144,359.6387,700.144,363.6387,704.144,359.6387" style="stroke:#181818;stroke-width:1;"/><line style="stroke:#181818;stroke-width:1;" x1="147.3203" x2="706.144" y1="359.6387" y2="359.6387"/><text fill="#000000" font-family="sans-serif" font-size="13" lengthAdjust="spacing" textLength="69.8813" x="394.7915" y="354.8965">execute(m)</text></g><g class="message" data-entity-1="part4" data-entity-2="part6" id="msg14"><polygon fill="#181818" points="1002.1636,384.9492,1012.1636,388.9492,1002.1636,392.9492,1006.1636,388.9492" style="stroke:#181818;stroke-width:1;"/><line style="stroke:#181818;stroke-width:1;" x1="722.144" x2="1008.1636" y1="388.9492" y2="388.9492"/><text fill="#000000" font-family="sans-serif" font-size="13" lengthAdjust="spacing" textLength="114.5435" x="810.8821" y="384.207">deleteCompany(1)</text></g><g class="message" data-entity-1="part6" data-entity-2="part4" id="msg15"><polygon fill="#181818" points="733.144,398.9492,723.144,402.9492,733.144,406.9492,729.144,402.9492" style="stroke:#181818;stroke-width:1;"/><line style="stroke:#181818;stroke-width:1;stroke-dasharray:2,2;" x1="727.144" x2="1018.1636" y1="402.9492" y2="402.9492"/></g><g class="message" data-entity-1="part4" data-entity-2="part5" id="msg16"><polygon fill="#181818" points="805.1782,412.9492,815.1782,416.9492,805.1782,420.9492,809.1782,416.9492" style="stroke:#181818;stroke-width:1;"/><line style="stroke:#181818;stroke-width:1;" x1="722.144" x2="811.1782" y1="416.9492" y2="416.9492"/></g><rect fill="#3333C4" height="30.4883" rx="2.5" ry="2.5" style="stroke:#181818;stroke-width:0.5;" width="135.5771" x="817.1782" y="410.9492"/><text fill="#FFFFFF" font-family="sans-serif" font-size="14" lengthAdjust="spacing" textLength="121.5771" x="824.1782" y="431.4844">r:CommandResult</text><g class="message" data-entity-1="part5" data-entity-2="part4" id="msg18"><polygon fill="#181818" points="733.144,454.4375,723.144,458.4375,733.144,462.4375,729.144,458.4375" style="stroke:#181818;stroke-width:1;"/><line style="stroke:#181818;stroke-width:1;stroke-dasharray:2,2;" x1="727.144" x2="883.9668" y1="458.4375" y2="458.4375"/></g><g class="message" data-entity-1="part4" data-entity-2="part1" id="msg19"><polygon fill="#181818" points="158.3203,483.748,148.3203,487.748,158.3203,491.748,154.3203,487.748" style="stroke:#181818;stroke-width:1;"/><line style="stroke:#181818;stroke-width:1;stroke-dasharray:2,2;" x1="152.3203" x2="716.144" y1="487.748" y2="487.748"/><text fill="#000000" font-family="sans-serif" font-size="13" lengthAdjust="spacing" textLength="5.3193" x="429.5725" y="483.0059">r</text></g><g class="message" data-entity-1="part1" data-entity-2="part1" id="msg20"><polygon fill="#181818" points="11,497.748,1,501.748,11,505.748,7,501.748" style="stroke:#181818;stroke-width:1;"/><line style="stroke:#181818;stroke-width:1;stroke-dasharray:2,2;" x1="5" x2="141.3203" y1="501.748" y2="501.748"/></g><?plantuml-src bLHTJy8m57tlhxZkHNp0XDV5c21-9X0C-aQCAUiL6hPsQOlAlxSh0zUrGtpRxZtdtE-USP7b6uQWpJR7ot9Jv4IlkIYfeWKCbP9VzrAObyeBPKwv86GXls4ibpo3yVJXQVG-cewdi_VN0R4ampDUKc4WIHraGWLTeag0QcWQcjGMRyYOGgrlf5m_KwLhSc0zed2BEHeSoQAWWZKq8lPk5URBX0BTL9NMa1dgJMuSrRDuLBHIjgMxlauamnmcqzkxSKTVYzHXd6Y0_XMRzw_zXgU0tvXj3FOIvig0GN91Q6Ru9xK_JImX7jCgXTrFeQm-whBYcW6Ba4nXvObCWeGnRE0OyA0VSvBOaFkn4WZ3uqgd9hJlHI_ngezgnkgFfzmArQ7RgjTL6asnizf_TCmMolxgslaZPmm5qEhf02EXb9eRBWMO5G93RPJSGa7LskejCAz0rb7jhVnmdxLyHLbGTHbFRxvoOTuw1hkBSkfKmrFnoeoiSVi-_27ydbfnSUhShkjZjh7t3dllszwWeU0GXEo0mQIRATV8UjkyjoSCxBiF6hwP-0_OqUWjPhYXhMwh8yivl-htlRUf0MtQVm00?></g></svg>
