<?plantuml 1.2026.2?><svg xmlns="http://www.w3.org/2000/svg" xmlns:xlink="http://www.w3.org/1999/xlink" contentStyleType="text/css" data-diagram-type="CLASS" height="616px" preserveAspectRatio="none" style="width:552px;height:616px;background:#FFFFFF;" version="1.1" viewBox="0 0 552 616" width="552px" zoomAndPan="magnify"><defs/><g><!--cluster LogicPackage--><g class="cluster" data-qualified-name="LogicPackage" data-source-line="6" id="ent0002"><rect fill="#FFFFFF" height="529.06" rx="2.5" ry="2.5" style="stroke:#000000;stroke-width:1;" width="296" x="7" y="81.24"/><text fill="#000000" font-family="sans-serif" font-size="16" font-weight="bold" lengthAdjust="spacing" textLength="43.7969" x="133.1016" y="98.7088">Logic</text></g><!--cluster Model--><g class="cluster" data-qualified-name="Model" data-source-line="19" id="ent0009"><rect fill="#FFFFFF" height="96.25" rx="2.5" ry="2.5" style="stroke:#000000;stroke-width:1;" width="162" x="335" y="409.12"/><text fill="#000000" font-family="sans-serif" font-size="16" font-weight="bold" lengthAdjust="spacing" textLength="49.9219" x="391.0391" y="426.5887">Model</text></g><!--class XYZCommand--><g class="entity" data-qualified-name="LogicPackage.XYZCommand" data-source-line="10" id="ent0004"><rect fill="#3333C4" height="27.2485" rx="2.5" ry="2.5" style="stroke:#FFFFFF;stroke-width:1;" width="104.3643" x="178.82" y="567.05"/><text fill="#FFFFFF" font-family="Arial" font-size="15" lengthAdjust="spacing" textLength="98.3643" x="181.82" y="586.1198">XYZCommand</text></g><!--class CommandResult--><g class="entity" data-qualified-name="LogicPackage.CommandResult" data-source-line="11" id="ent0005"><rect fill="#3333C4" height="27.2485" rx="2.5" ry="2.5" style="stroke:#FFFFFF;stroke-width:1;" width="117.709" x="169.15" y="295.65"/><text fill="#FFFFFF" font-family="Arial" font-size="15" lengthAdjust="spacing" textLength="111.709" x="172.15" y="314.7198">CommandResult</text></g><!--class Command--><g class="entity" data-qualified-name="LogicPackage.Command" data-source-line="12" id="ent0006"><rect fill="#3333C4" height="44.4971" rx="2.5" ry="2.5" style="stroke:#FFFFFF;stroke-width:1;" width="75.1919" x="193.4" y="445.49"/><text fill="#FFFFFF" font-family="Arial" font-size="15" lengthAdjust="spacing" textLength="63.3765" x="199.3077" y="464.5598">{abstract}</text><text fill="#FFFFFF" font-family="Arial" font-size="15" lengthAdjust="spacing" textLength="69.1919" x="196.4" y="481.8084">Command</text></g><!--class Logic--><g class="entity" data-qualified-name="LogicPackage.Logic" data-source-line="15" id="ent0007"><rect fill="#3333C4" height="44.4971" rx="2.5" ry="2.5" style="stroke:#FFFFFF;stroke-width:1;" width="80.2163" x="206.89" y="118.24"/><text fill="#FFFFFF" font-family="Arial" font-size="15" lengthAdjust="spacing" textLength="74.2163" x="209.89" y="137.3098">&#171;interface&#187;</text><text fill="#FFFFFF" font-family="Arial" font-size="15" lengthAdjust="spacing" textLength="35.8594" x="229.0685" y="154.5584">Logic</text></g><!--class LogicManager--><g class="entity" data-qualified-name="LogicPackage.LogicManager" data-source-line="16" id="ent0008"><rect fill="#3333C4" height="27.2485" rx="2.5" ry="2.5" style="stroke:#FFFFFF;stroke-width:1;" width="101.061" x="70.47" y="126.87"/><text fill="#FFFFFF" font-family="Arial" font-size="15" lengthAdjust="spacing" textLength="95.061" x="73.47" y="145.9398">LogicManager</text></g><rect fill="#FFFFFF" height="57.6875" rx="2.5" ry="2.5" style="stroke:#181818;stroke-width:1;" width="139.9844" x="23.01" y="192.74"/><text fill="#000000" font-family="sans-serif" font-size="16" font-weight="bold" lengthAdjust="spacing" textLength="119.9844" x="33.01" y="210.2087">Parser Classes</text><!--class HiddenModel--><g class="entity" data-qualified-name="Model.HiddenModel" data-source-line="20" id="ent0010"><rect fill="#FFFFFF" height="27.2485" rx="2.5" ry="2.5" style="stroke:#FFFFFF;stroke-width:1;" width="94.3887" x="358.81" y="454.12"/><text fill="#FFFFFF" font-family="Arial" font-size="15" lengthAdjust="spacing" textLength="88.3887" x="361.81" y="473.1898">HiddenModel</text></g><rect fill="#FFFFFF" height="57.6875" rx="2.5" ry="2.5" style="stroke:#181818;stroke-width:1;" width="82.4531" x="321.77" y="280.43"/><text fill="#000000" font-family="sans-serif" font-size="16" font-weight="bold" lengthAdjust="spacing" textLength="62.4531" x="331.77" y="297.8987">Storage</text><!--class HiddenOutside--><g class="entity" data-qualified-name="HiddenOutside" data-source-line="26" id="ent0012"><rect fill="#FFFFFF" height="27.2485" rx="2.5" ry="2.5" style="stroke:#FFFFFF;stroke-width:1;" width="105.2285" x="194.39" y="7"/><text fill="#FFFFFF" font-family="Arial" font-size="15" lengthAdjust="spacing" textLength="99.2285" x="197.39" y="26.0698">HiddenOutside</text></g><g class="entity" data-qualified-name="GMN27" data-source-line="41" id="ent0028"><path d="M318.71,560.37 L318.71,576.68 L283.61,580.68 L318.71,584.68 L318.71,600.9911 A0,0 0 0 0 318.71,600.9911 L545.2915,600.9911 A0,0 0 0 0 545.2915,600.9911 L545.2915,570.37 L535.2915,560.37 L318.71,560.37 A0,0 0 0 0 318.71,560.37" fill="#FEFFDD" style="stroke:#181818;stroke-width:0.5;"/><path d="M535.2915,560.37 L535.2915,570.37 L545.2915,570.37 L535.2915,560.37" fill="#FEFFDD" style="stroke:#181818;stroke-width:0.5;"/><text fill="#000000" font-family="sans-serif" font-size="13" lengthAdjust="spacing" textLength="201.4683" x="324.71" y="577.9384">XYZCommand = AddCommand,</text><text fill="#000000" font-family="sans-serif" font-size="13" lengthAdjust="spacing" textLength="123.5825" x="365.7095" y="593.2489">FilterCommand, etc</text></g><!--link HiddenOutside to Logic--><g class="link" data-entity-1="ent0012" data-entity-2="ent0007" data-link-type="dependency" data-source-line="27" id="lnk13"><path codeLine="27" d="M247,34.69 C247,54.83 247,87.67 247,111.99" fill="none" id="HiddenOutside-to-Logic" style="stroke:#101086;stroke-width:1.1;stroke-dasharray:7,7;"/><polygon fill="#101086" points="247,117.99,251,108.99,247,112.99,243,108.99,247,117.99" style="stroke:#101086;stroke-width:1.1;"/></g><!--link LogicManager to Logic--><g class="link" data-entity-1="ent0008" data-entity-2="ent0007" data-link-type="extension" data-source-line="29" id="lnk14"><path codeLine="29" d="M171.7,140.49 C183.27,140.49 176.84,140.49 188.41,140.49" fill="none" id="LogicManager-to-Logic" style="stroke:#101086;stroke-width:1.1;stroke-dasharray:7,7;"/><polygon fill="none" points="206.41,140.49,188.41,134.49,188.41,146.49,206.41,140.49" style="stroke:#101086;stroke-width:1.1;"/></g><!--link LogicManager to ParserClasses--><g class="link" data-entity-1="ent0008" data-entity-2="ent0003" data-link-type="dependency" data-source-line="30" id="lnk15"><path codeLine="30" d="M116.38,154.55 C112.74,164.82 109.5536,173.8444 104.9836,186.7444" fill="none" id="LogicManager-to-ParserClasses" style="stroke:#101086;stroke-width:1.1;"/><polygon fill="#101086" points="102.98,192.4,109.7557,185.2523,104.6496,187.687,102.215,182.5809,102.98,192.4" style="stroke:#101086;stroke-width:1.1;"/><text fill="#000000" font-family="sans-serif" font-size="13" font-weight="bold" lengthAdjust="spacing" textLength="8.5757" x="96.3506" y="181.9778">1</text></g><!--link ParserClasses to XYZCommand--><g class="link" data-entity-1="ent0003" data-entity-2="ent0004" data-link-type="dependency" data-source-line="31" id="lnk16"><path codeLine="31" d="M79.32,250.93 C65.32,283.95 47.76,339.78 64,385.12 C93.58,467.67 171.7749,534.7209 208.4349,562.9309" fill="none" id="ParserClasses-to-XYZCommand" style="stroke:#101086;stroke-width:1.1;stroke-dasharray:7,7;"/><polygon fill="#101086" points="213.19,566.59,208.4967,557.9313,209.2274,563.5408,203.6179,564.2715,213.19,566.59" style="stroke:#101086;stroke-width:1.1;"/><text fill="#000000" font-family="sans-serif" font-size="13" font-weight="bold" lengthAdjust="spacing" textLength="55.7769" x="65" y="381.6884">&#171;create&#187;</text></g><!--reverse link Command to XYZCommand--><g class="link" data-entity-1="ent0006" data-entity-2="ent0004" data-link-type="extension" data-source-line="33" id="lnk18"><path codeLine="33" d="M231,508.39 C231,531.09 231,548.01 231,566.74" fill="none" id="Command-backto-XYZCommand" style="stroke:#101086;stroke-width:1.1;"/><polygon fill="none" points="231,490.39,225,508.39,237,508.39,231,490.39" style="stroke:#101086;stroke-width:1.1;"/></g><!--reverse link Command to LogicManager--><g class="link" data-entity-1="ent0006" data-entity-2="ent0008" data-link-type="dependency" data-source-line="34" id="lnk20"><path codeLine="34" d="M196.3805,441.3798 C167.5805,418.5198 130.59,383.3 113,338.12 C103.7,314.22 100.27,302.68 113,280.43 C126.06,257.6 150.94,273.26 164,250.43 C176.73,228.17 172.77,216.83 164,192.74 C158.52,177.68 146.45,163.96 136.49,154.52" fill="none" id="Command-backto-LogicManager" style="stroke:#101086;stroke-width:1.1;stroke-dasharray:7,7;"/><polygon fill="#101086" points="201.08,445.11,196.5176,436.3816,197.1637,442.0015,191.5439,442.6477,201.08,445.11" style="stroke:#101086;stroke-width:1.1;"/><text fill="#000000" font-family="sans-serif" font-size="13" font-weight="bold" lengthAdjust="spacing" textLength="37.8193" x="114" y="314.3384">&#171;call&#187;</text></g><!--link LogicManager to Model--><g class="link" data-entity-1="ent0008" data-entity-2="ent0009" data-link-type="dependency" data-source-line="36" id="lnk21"><path codeLine="36" d="M160.93,154.5 C197.45,166.57 248.62,183.94 268,192.74 C339.71,225.33 369.82,221.43 422,280.43 C450.695,312.87 467.375,358.51 476.915,396.4975 C477.5113,398.8717 478.0796,401.216 478.6213,403.5254 C478.8921,404.6801 479.1563,405.826 479.4139,406.9625 C479.5427,407.5308 478.3649,402.2404 478.4904,402.8039" fill="none" id="LogicManager-to-Model" style="stroke:#101086;stroke-width:1.1;"/><polygon fill="#101086" points="479.7954,408.6602,481.7422,399.0057,478.7079,403.7799,473.9337,400.7457,479.7954,408.6602" style="stroke:#101086;stroke-width:1.1;"/></g><!--link LogicManager to Storage--><g class="link" data-entity-1="ent0008" data-entity-2="ent0011" data-link-type="dependency" data-source-line="37" id="lnk22"><path codeLine="37" d="M142.2,154.43 C158.67,164.6 181.99,179.25 202,192.74 C244.79,221.59 287.8763,252.7453 320.2263,276.5353" fill="none" id="LogicManager-to-Storage" style="stroke:#101086;stroke-width:1.1;"/><polygon fill="#101086" points="325.06,280.09,320.1793,271.5356,321.0319,277.1278,315.4397,277.9805,325.06,280.09" style="stroke:#101086;stroke-width:1.1;"/></g><!--link Storage to Model--><!--reverse link Storage to Command--><!--link Command to Model--><g class="link" data-entity-1="ent0006" data-entity-2="ent0009" data-link-type="dependency" data-source-line="40" id="lnk26"><path codeLine="40" d="M250.28,445.42 C273.48,420.44 315.05,381.38 360.5,365.62 C398.71,352.36 416.05,346.15 451.5,365.62 C461.6,371.1625 469.0156,379.8619 474.4528,389.8989 C477.1714,394.9174 479.3954,400.2704 481.213,405.7303 C481.4402,406.4128 481.6611,407.097 481.8757,407.7823 C481.9831,408.125 480.3449,402.7271 480.4492,403.0703" fill="none" id="Command-to-Model" style="stroke:#101086;stroke-width:1.1;stroke-dasharray:7,7;"/><polygon fill="#101086" points="482.1931,408.8113,483.4045,399.0372,480.7399,404.0272,475.7499,401.3625,482.1931,408.8113" style="stroke:#101086;stroke-width:1.1;"/></g><!--link Logic to CommandResult--><g class="link" data-entity-1="ent0007" data-entity-2="ent0005" data-link-type="dependency" data-source-line="43" id="lnk30"><path codeLine="43" d="M244.55,162.96 C240.55,198.15 233.3807,261.0887 230.1307,289.5487" fill="none" id="Logic-to-CommandResult" style="stroke:#101086;stroke-width:1.1;stroke-dasharray:7,7;"/><polygon fill="#101086" points="229.45,295.51,234.4453,287.0219,230.0173,290.5423,226.497,286.1143,229.45,295.51" style="stroke:#101086;stroke-width:1.1;"/></g><!--link LogicManager to CommandResult--><g class="link" data-entity-1="ent0008" data-entity-2="ent0005" data-link-type="dependency" data-source-line="44" id="lnk31"><path codeLine="44" d="M139.07,154.41 C151.32,163.91 167.2,177.72 178,192.74 C201.99,226.1 216.0029,267.018 222.6629,289.458" fill="none" id="LogicManager-to-CommandResult" style="stroke:#101086;stroke-width:1.1;stroke-dasharray:7,7;"/><polygon fill="#101086" points="224.37,295.21,225.644,285.4439,222.9474,290.4167,217.9746,287.7201,224.37,295.21" style="stroke:#101086;stroke-width:1.1;"/></g><!--reverse link CommandResult to Command--><g class="link" data-entity-1="ent0005" data-entity-2="ent0006" data-link-type="dependency" data-source-line="45" id="lnk33"><path codeLine="45" d="M228.3657,329.3389 C228.8857,356.2989 229.96,412.29 230.59,445.24" fill="none" id="CommandResult-backto-Command" style="stroke:#101086;stroke-width:1.1;stroke-dasharray:7,7;"/><polygon fill="#101086" points="228.25,323.34,224.4243,332.4155,228.3464,328.3391,232.4228,332.2612,228.25,323.34" style="stroke:#101086;stroke-width:1.1;"/><text fill="#000000" font-family="sans-serif" font-size="13" font-weight="bold" lengthAdjust="spacing" textLength="55.7769" x="230.41" y="381.6884">&#171;create&#187;</text></g><?plantuml-src PL9TQy8m57tFhyYwrpKWx4bSOIku3PIAsyC-798riGRJf2GfCfp_VJKVjPbzkZddt9jpJtF5HCbRGg4sFvoYfgqvq3ic6gnm3R5ISl-wPULEKAtX28t-axdaKi5PyVYSh_DYLYpNhxS3JScnrW-ut5LAje9Sg05eEX9N5CvanKg8jIiM7ZsS1Sa2AqqLp4yZgKvEMWTvv02Em9RmxVqZbtMD1V60FosfRhdnM7B0tzeeN9hZIdY17HfQGH1E9amOgZQuf5cs4jPWqblrAblFiUYigiv8Rtik2UNT7axrn0YXmc7NK_iDnIz6AhVs4KGTHMiqw_vIw8bHX3Bl1GnjGAHOjJNeDx0HcLeopP9H4kS8efCTVWuKZk5aKYgAJPS500CYRPkqkoca5nlXT6DGJxeXcFFJYDXKchd4Bc6V3GWPfUddrgRmvJl2S1Jmja7djfvrcOHhX3GKMWZApM3FyN3dEtXFY3_Sm9MOCjwzXnwW9WHlmueVMvm3aNjn8UcjMSCH5yNz1m00?></g></svg>
