<?plantuml 1.2026.2?><svg xmlns="http://www.w3.org/2000/svg" xmlns:xlink="http://www.w3.org/1999/xlink" contentStyleType="text/css" data-diagram-type="CLASS" height="788px" preserveAspectRatio="none" style="width:825px;height:788px;background:#FFFFFF;" version="1.1" viewBox="0 0 825 788" width="825px" zoomAndPan="magnify"><defs/><g><!--cluster ModelPackage--><g class="cluster" data-qualified-name="ModelPackage" data-source-line="6" id="ent0002"><rect fill="#FFFFFF" height="723.49" rx="2.5" ry="2.5" style="stroke:#181818;stroke-width:1;" width="775" x="21.79" y="59.24"/><text fill="#000000" font-family="sans-serif" font-size="14" font-weight="bold" lengthAdjust="spacing" textLength="43.6816" x="387.4492" y="74.7752">Model</text></g><!--class ReadOnlyAddressBook--><g class="entity" data-qualified-name="ModelPackage.ReadOnlyAddressBook" data-source-line="7" id="ent0003"><rect fill="#9D0012" height="44.4971" rx="2.5" ry="2.5" style="stroke:#FFFFFF;stroke-width:1;" width="161.918" x="65.83" y="198.74"/><text fill="#FFFFFF" font-family="Arial" font-size="15" lengthAdjust="spacing" textLength="74.2163" x="109.6808" y="217.8098">&#171;interface&#187;</text><text fill="#FFFFFF" font-family="Arial" font-size="15" lengthAdjust="spacing" textLength="155.918" x="68.83" y="235.0584">ReadOnlyAddressBook</text></g><!--class ReadOnlyDeliveryBook--><g class="entity" data-qualified-name="ModelPackage.ReadOnlyDeliveryBook" data-source-line="8" id="ent0004"><rect fill="#9D0012" height="44.4971" rx="2.5" ry="2.5" style="stroke:#FFFFFF;stroke-width:1;" width="161.0684" x="613.26" y="198.74"/><text fill="#FFFFFF" font-family="Arial" font-size="15" lengthAdjust="spacing" textLength="74.2163" x="656.686" y="217.8098">&#171;interface&#187;</text><text fill="#FFFFFF" font-family="Arial" font-size="15" lengthAdjust="spacing" textLength="155.0684" x="616.26" y="235.0584">ReadOnlyDeliveryBook</text></g><!--class ReadOnlyUserPrefs--><g class="entity" data-qualified-name="ModelPackage.ReadOnlyUserPrefs" data-source-line="9" id="ent0005"><rect fill="#9D0012" height="44.4971" rx="2.5" ry="2.5" style="stroke:#FFFFFF;stroke-width:1;" width="139.3813" x="439.1" y="198.74"/><text fill="#FFFFFF" font-family="Arial" font-size="15" lengthAdjust="spacing" textLength="74.2163" x="471.6825" y="217.8098">&#171;interface&#187;</text><text fill="#FFFFFF" font-family="Arial" font-size="15" lengthAdjust="spacing" textLength="133.3813" x="442.1" y="235.0584">ReadOnlyUserPrefs</text></g><!--class ReadOnlyUser--><g class="entity" data-qualified-name="ModelPackage.ReadOnlyUser" data-source-line="10" id="ent0006"><rect fill="#9D0012" height="44.4971" rx="2.5" ry="2.5" style="stroke:#FFFFFF;stroke-width:1;" width="104.3716" x="299.6" y="198.74"/><text fill="#FFFFFF" font-family="Arial" font-size="15" lengthAdjust="spacing" textLength="74.2163" x="314.6776" y="217.8098">&#171;interface&#187;</text><text fill="#FFFFFF" font-family="Arial" font-size="15" lengthAdjust="spacing" textLength="98.3716" x="302.6" y="235.0584">ReadOnlyUser</text></g><!--class Model--><g class="entity" data-qualified-name="ModelPackage.Model" data-source-line="11" id="ent0007"><rect fill="#9D0012" height="44.4971" rx="2.5" ry="2.5" style="stroke:#FFFFFF;stroke-width:1;" width="80.2163" x="311.68" y="94.24"/><text fill="#FFFFFF" font-family="Arial" font-size="15" lengthAdjust="spacing" textLength="74.2163" x="314.68" y="113.3098">&#171;interface&#187;</text><text fill="#FFFFFF" font-family="Arial" font-size="15" lengthAdjust="spacing" textLength="40.8545" x="331.3609" y="130.5584">Model</text></g><!--class AddressBook--><g class="entity" data-qualified-name="ModelPackage.AddressBook" data-source-line="12" id="ent0008"><rect fill="#9D0012" height="27.2485" rx="2.5" ry="2.5" style="stroke:#FFFFFF;stroke-width:1;" width="95.2163" x="151.18" y="390.49"/><text fill="#FFFFFF" font-family="Arial" font-size="15" lengthAdjust="spacing" textLength="89.2163" x="154.18" y="409.5598">AddressBook</text></g><!--class ModelManager--><g class="entity" data-qualified-name="ModelPackage.ModelManager" data-source-line="13" id="ent0009"><rect fill="#9D0012" height="27.2485" rx="2.5" ry="2.5" style="stroke:#FFFFFF;stroke-width:1;" width="106.0562" x="298.76" y="390.49"/><text fill="#FFFFFF" font-family="Arial" font-size="15" lengthAdjust="spacing" textLength="100.0562" x="301.76" y="409.5598">ModelManager</text></g><!--class UserPrefs--><g class="entity" data-qualified-name="ModelPackage.UserPrefs" data-source-line="14" id="ent0010"><rect fill="#9D0012" height="27.2485" rx="2.5" ry="2.5" style="stroke:#FFFFFF;stroke-width:1;" width="72.6797" x="465.45" y="303.24"/><text fill="#FFFFFF" font-family="Arial" font-size="15" lengthAdjust="spacing" textLength="66.6797" x="468.45" y="322.3098">UserPrefs</text></g><!--class User--><g class="entity" data-qualified-name="ModelPackage.User" data-source-line="15" id="ent0011"><rect fill="#9D0012" height="27.2485" rx="2.5" ry="2.5" style="stroke:#FFFFFF;stroke-width:1;" width="50" x="326.79" y="303.24"/><text fill="#FFFFFF" font-family="Arial" font-size="15" lengthAdjust="spacing" textLength="31.6699" x="335.955" y="322.3098">User</text></g><!--class DeliveryBook--><g class="entity" data-qualified-name="ModelPackage.DeliveryBook" data-source-line="16" id="ent0012"><rect fill="#9D0012" height="27.2485" rx="2.5" ry="2.5" style="stroke:#FFFFFF;stroke-width:1;" width="94.3667" x="526.61" y="390.49"/><text fill="#FFFFFF" font-family="Arial" font-size="15" lengthAdjust="spacing" textLength="88.3667" x="529.61" y="409.5598">DeliveryBook</text></g><!--class UniqueCompanyList--><g class="entity" data-qualified-name="ModelPackage.UniqueCompanyList" data-source-line="18" id="ent0013"><rect fill="#9D0012" height="27.2485" rx="2.5" ry="2.5" style="stroke:#FFFFFF;stroke-width:1;" width="141.0732" x="128.25" y="477.74"/><text fill="#FFFFFF" font-family="Arial" font-size="15" lengthAdjust="spacing" textLength="135.0732" x="131.25" y="496.8098">UniqueCompanyList</text></g><!--class Company--><g class="entity" data-qualified-name="ModelPackage.Company" data-source-line="19" id="ent0014"><rect fill="#9D0012" height="27.2485" rx="2.5" ry="2.5" style="stroke:#FFFFFF;stroke-width:1;" width="70.1968" x="283.69" y="564.98"/><text fill="#FFFFFF" font-family="Arial" font-size="15" lengthAdjust="spacing" textLength="64.1968" x="286.69" y="584.0498">Company</text></g><!--class Address--><g class="entity" data-qualified-name="ModelPackage.Address" data-source-line="20" id="ent0015"><rect fill="#9D0012" height="27.2485" rx="2.5" ry="2.5" style="stroke:#FFFFFF;stroke-width:1;" width="61.0269" x="75.28" y="652.23"/><text fill="#FFFFFF" font-family="Arial" font-size="15" lengthAdjust="spacing" textLength="55.0269" x="78.28" y="671.2998">Address</text></g><!--class Email--><g class="entity" data-qualified-name="ModelPackage.Email" data-source-line="21" id="ent0016"><rect fill="#9D0012" height="27.2485" rx="2.5" ry="2.5" style="stroke:#FFFFFF;stroke-width:1;" width="50" x="171.79" y="652.23"/><text fill="#FFFFFF" font-family="Arial" font-size="15" lengthAdjust="spacing" textLength="37.5073" x="178.0363" y="671.2998">Email</text></g><!--class Name--><g class="entity" data-qualified-name="ModelPackage.Name" data-source-line="22" id="ent0017"><rect fill="#9D0012" height="27.2485" rx="2.5" ry="2.5" style="stroke:#FFFFFF;stroke-width:1;" width="50" x="293.79" y="652.23"/><text fill="#FFFFFF" font-family="Arial" font-size="15" lengthAdjust="spacing" textLength="40.0122" x="298.7839" y="671.2998">Name</text></g><!--class Phone--><g class="entity" data-qualified-name="ModelPackage.Phone" data-source-line="23" id="ent0018"><rect fill="#9D0012" height="27.2485" rx="2.5" ry="2.5" style="stroke:#FFFFFF;stroke-width:1;" width="50" x="378.79" y="652.23"/><text fill="#FFFFFF" font-family="Arial" font-size="15" lengthAdjust="spacing" textLength="43.374" x="382.103" y="671.2998">Phone</text></g><!--class Tag--><g class="entity" data-qualified-name="ModelPackage.Tag" data-source-line="24" id="ent0019"><rect fill="#9D0012" height="27.2485" rx="2.5" ry="2.5" style="stroke:#FFFFFF;stroke-width:1;" width="50" x="463.79" y="652.23"/><text fill="#FFFFFF" font-family="Arial" font-size="15" lengthAdjust="spacing" textLength="25.8472" x="475.8664" y="671.2998">Tag</text></g><!--class UniqueDeliveryList--><g class="entity" data-qualified-name="ModelPackage.UniqueDeliveryList" data-source-line="26" id="ent0020"><rect fill="#9D0012" height="27.2485" rx="2.5" ry="2.5" style="stroke:#FFFFFF;stroke-width:1;" width="131.0537" x="508.26" y="477.74"/><text fill="#FFFFFF" font-family="Arial" font-size="15" lengthAdjust="spacing" textLength="125.0537" x="511.26" y="496.8098">UniqueDeliveryList</text></g><!--class Delivery--><g class="entity" data-qualified-name="ModelPackage.Delivery" data-source-line="27" id="ent0021"><rect fill="#9D0012" height="27.2485" rx="2.5" ry="2.5" style="stroke:#FFFFFF;stroke-width:1;" width="60.1772" x="519.7" y="564.98"/><text fill="#FFFFFF" font-family="Arial" font-size="15" lengthAdjust="spacing" textLength="54.1772" x="522.7" y="584.0498">Delivery</text></g><!--class Product--><g class="entity" data-qualified-name="ModelPackage.Product" data-source-line="28" id="ent0022"><rect fill="#9D0012" height="27.2485" rx="2.5" ry="2.5" style="stroke:#FFFFFF;stroke-width:1;" width="57.6943" x="585.94" y="652.23"/><text fill="#FFFFFF" font-family="Arial" font-size="15" lengthAdjust="spacing" textLength="51.6943" x="588.94" y="671.2998">Product</text></g><!--class Deadline--><g class="entity" data-qualified-name="ModelPackage.Deadline" data-source-line="29" id="ent0023"><rect fill="#9D0012" height="27.2485" rx="2.5" ry="2.5" style="stroke:#FFFFFF;stroke-width:1;" width="65.209" x="678.19" y="652.23"/><text fill="#FFFFFF" font-family="Arial" font-size="15" lengthAdjust="spacing" textLength="59.209" x="681.19" y="671.2998">Deadline</text></g><!--class I--><g class="entity" data-qualified-name="ModelPackage.I" data-source-line="32" id="ent0024"><rect fill="#FFFFFF" height="27.2485" rx="2.5" ry="2.5" style="stroke:#FFFFFF;stroke-width:1;" width="50" x="378.79" y="739.48"/><text fill="#FFFFFF" font-family="Arial" font-size="15" lengthAdjust="spacing" textLength="4.1675" x="401.7063" y="758.5498">I</text></g><!--class HiddenOutside--><g class="entity" data-qualified-name="HiddenOutside" data-source-line="35" id="ent0025"><rect fill="#FFFFFF" height="27.2485" rx="2.5" ry="2.5" style="stroke:#FFFFFF;stroke-width:1;" width="105.2285" x="299.18" y="7"/><text fill="#FFFFFF" font-family="Arial" font-size="15" lengthAdjust="spacing" textLength="99.2285" x="302.18" y="26.0698">HiddenOutside</text></g><!--link HiddenOutside to Model--><g class="link" data-entity-1="ent0025" data-entity-2="ent0007" data-link-type="dependency" data-source-line="36" id="lnk26"><path codeLine="36" d="M351.79,34.67 C351.79,49.99 351.79,69.61 351.79,87.9" fill="none" id="HiddenOutside-to-Model" style="stroke:#9D0012;stroke-width:1.1;stroke-dasharray:7,7;"/><polygon fill="#9D0012" points="351.79,93.9,355.79,84.9,351.79,88.9,347.79,84.9,351.79,93.9" style="stroke:#9D0012;stroke-width:1.1;"/></g><!--reverse link ReadOnlyAddressBook to AddressBook--><g class="link" data-entity-1="ent0003" data-entity-2="ent0008" data-link-type="extension" data-source-line="38" id="lnk28"><path codeLine="38" d="M157.9266,260.7812 C168.8466,298.8212 186.3,359.61 195.11,390.31" fill="none" id="ReadOnlyAddressBook-backto-AddressBook" style="stroke:#9D0012;stroke-width:1.1;stroke-dasharray:7,7;"/><polygon fill="none" points="152.96,243.48,152.1595,262.4368,163.6937,259.1257,152.96,243.48" style="stroke:#9D0012;stroke-width:1.1;"/></g><!--reverse link ReadOnlyDeliveryBook to DeliveryBook--><g class="link" data-entity-1="ent0004" data-entity-2="ent0012" data-link-type="extension" data-source-line="39" id="lnk30"><path codeLine="39" d="M669.6091,258.486 C644.4091,296.526 602.61,359.61 582.27,390.31" fill="none" id="ReadOnlyDeliveryBook-backto-DeliveryBook" style="stroke:#9D0012;stroke-width:1.1;stroke-dasharray:7,7;"/><polygon fill="none" points="679.55,243.48,664.6071,255.1724,674.6111,261.7996,679.55,243.48" style="stroke:#9D0012;stroke-width:1.1;"/></g><!--reverse link Model to ModelManager--><g class="link" data-entity-1="ent0007" data-entity-2="ent0009" data-link-type="extension" data-source-line="41" id="lnk32"><path codeLine="41" d="M312.3388,151.2579 C296.3488,166.1279 290.54,175.18 281.79,198.74 C255.15,270.46 315.42,357.66 341,390.12" fill="none" id="Model-backto-ModelManager" style="stroke:#9D0012;stroke-width:1.1;stroke-dasharray:7,7;"/><polygon fill="none" points="325.52,139,308.2528,146.8642,316.4248,155.6516,325.52,139" style="stroke:#9D0012;stroke-width:1.1;"/></g><!--link Model to ReadOnlyUserPrefs--><g class="link" data-entity-1="ent0007" data-entity-2="ent0005" data-link-type="dependency" data-source-line="42" id="lnk33"><path codeLine="42" d="M385.09,139.23 C411.73,156.62 443.8854,177.6207 470.5154,195.0007" fill="none" id="Model-to-ReadOnlyUserPrefs" style="stroke:#9D0012;stroke-width:1.1;stroke-dasharray:7,7;"/><polygon fill="#9D0012" points="475.54,198.28,470.1893,190.0114,471.3529,195.5473,465.817,196.7108,475.54,198.28" style="stroke:#9D0012;stroke-width:1.1;"/></g><!--link Model to ReadOnlyUser--><g class="link" data-entity-1="ent0007" data-entity-2="ent0006" data-link-type="dependency" data-source-line="43" id="lnk34"><path codeLine="43" d="M351.79,139.23 C351.79,156.62 351.79,174.9 351.79,192.28" fill="none" id="Model-to-ReadOnlyUser" style="stroke:#9D0012;stroke-width:1.1;stroke-dasharray:7,7;"/><polygon fill="#9D0012" points="351.79,198.28,355.79,189.28,351.79,193.28,347.79,189.28,351.79,198.28" style="stroke:#9D0012;stroke-width:1.1;"/></g><!--link Model to ReadOnlyAddressBook--><g class="link" data-entity-1="ent0007" data-entity-2="ent0003" data-link-type="dependency" data-source-line="44" id="lnk35"><path codeLine="44" d="M311.29,137.74 C276.28,155.25 231.186,177.7855 195.406,195.6855" fill="none" id="Model-to-ReadOnlyAddressBook" style="stroke:#9D0012;stroke-width:1.1;stroke-dasharray:7,7;"/><polygon fill="#9D0012" points="190.04,198.37,199.8786,197.9206,194.5116,196.1329,196.2993,190.766,190.04,198.37" style="stroke:#9D0012;stroke-width:1.1;"/></g><!--link Model to ReadOnlyDeliveryBook--><g class="link" data-entity-1="ent0007" data-entity-2="ent0004" data-link-type="dependency" data-source-line="45" id="lnk36"><path codeLine="45" d="M392.36,129.65 C448.72,146.54 545.8525,175.6579 615.5725,196.5479" fill="none" id="Model-to-ReadOnlyDeliveryBook" style="stroke:#9D0012;stroke-width:1.1;stroke-dasharray:7,7;"/><polygon fill="#9D0012" points="621.32,198.27,613.8468,191.8551,616.5304,196.8349,611.5506,199.5185,621.32,198.27" style="stroke:#9D0012;stroke-width:1.1;"/></g><!--link ModelManager to DeliveryBook--><g class="link" data-entity-1="ent0009" data-entity-2="ent0012" data-link-type="dependency" data-source-line="46" id="lnk37"><path codeLine="46" d="M405.12,404.11 C445.53,404.11 479.94,404.11 520.35,404.11" fill="none" id="ModelManager-to-DeliveryBook" style="stroke:#9D0012;stroke-width:1.1;"/><polygon fill="#9D0012" points="526.35,404.11,517.35,400.11,521.35,404.11,517.35,408.11,526.35,404.11" style="stroke:#9D0012;stroke-width:1.1;"/><text fill="#000000" font-family="sans-serif" font-size="13" font-weight="bold" lengthAdjust="spacing" textLength="8.5757" x="509.8774" y="400.4612">1</text></g><!--reverse link AddressBook to ModelManager--><g class="link" data-entity-1="ent0008" data-entity-2="ent0009" data-link-type="dependency" data-source-line="47" id="lnk39"><path codeLine="47" d="M252.6,404.11 C269.86,404.11 281.12,404.11 298.37,404.11" fill="none" id="AddressBook-backto-ModelManager" style="stroke:#9D0012;stroke-width:1.1;"/><polygon fill="#9D0012" points="246.6,404.11,255.6,408.11,251.6,404.11,255.6,400.11,246.6,404.11" style="stroke:#9D0012;stroke-width:1.1;"/><text fill="#000000" font-family="sans-serif" font-size="13" font-weight="bold" lengthAdjust="spacing" textLength="8.5757" x="254.2521" y="400.599">1</text></g><!--reverse link UserPrefs to ModelManager--><g class="link" data-entity-1="ent0010" data-entity-2="ent0009" data-link-type="dependency" data-source-line="48" id="lnk41"><path codeLine="48" d="M473.793,333.7737 C445.593,349.7937 403.08,373.96 374.79,390.04" fill="none" id="UserPrefs-backto-ModelManager" style="stroke:#9D0012;stroke-width:1.1;"/><polygon fill="#9D0012" points="479.01,330.81,469.2088,331.7775,474.6625,333.2797,473.1603,338.7335,479.01,330.81" style="stroke:#9D0012;stroke-width:1.1;"/><text fill="#000000" font-family="sans-serif" font-size="13" font-weight="bold" lengthAdjust="spacing" textLength="8.5757" x="461.5722" y="351.0737">1</text></g><!--reverse link User to ModelManager--><g class="link" data-entity-1="ent0011" data-entity-2="ent0009" data-link-type="dependency" data-source-line="49" id="lnk43"><path codeLine="49" d="M351.79,336.81 C351.79,352.83 351.79,373.96 351.79,390.04" fill="none" id="User-backto-ModelManager" style="stroke:#9D0012;stroke-width:1.1;"/><polygon fill="#9D0012" points="351.79,330.81,347.79,339.81,351.79,335.81,355.79,339.81,351.79,330.81" style="stroke:#9D0012;stroke-width:1.1;"/><text fill="#000000" font-family="sans-serif" font-size="13" font-weight="bold" lengthAdjust="spacing" textLength="8.5757" x="342.4675" y="351.0737">1</text></g><!--reverse link ReadOnlyUserPrefs to UserPrefs--><g class="link" data-entity-1="ent0005" data-entity-2="ent0010" data-link-type="extension" data-source-line="50" id="lnk45"><path codeLine="50" d="M505.8652,261.2404 C504.5052,279.5304 503.92,287.35 502.77,302.75" fill="none" id="ReadOnlyUserPrefs-backto-UserPrefs" style="stroke:#9D0012;stroke-width:1.1;stroke-dasharray:7,7;"/><polygon fill="none" points="507.2,243.29,499.8818,260.7955,511.8487,261.6854,507.2,243.29" style="stroke:#9D0012;stroke-width:1.1;"/></g><!--reverse link ReadOnlyUser to User--><g class="link" data-entity-1="ent0006" data-entity-2="ent0011" data-link-type="extension" data-source-line="51" id="lnk47"><path codeLine="51" d="M351.79,261.29 C351.79,279.58 351.79,287.35 351.79,302.75" fill="none" id="ReadOnlyUser-backto-User" style="stroke:#9D0012;stroke-width:1.1;stroke-dasharray:7,7;"/><polygon fill="none" points="351.79,243.29,345.79,261.29,357.79,261.29,351.79,243.29" style="stroke:#9D0012;stroke-width:1.1;"/></g><!--link AddressBook to UniqueCompanyList--><g class="link" data-entity-1="ent0008" data-entity-2="ent0013" data-link-type="composition" data-source-line="53" id="lnk48"><path codeLine="53" d="M198.79,430.06 C198.79,446.08 198.79,455.21 198.79,471.29" fill="none" id="AddressBook-UniqueCompanyList" style="stroke:#9D0012;stroke-width:1.1;"/><polygon fill="#9D0012" points="198.79,418.06,194.79,424.06,198.79,430.06,202.79,424.06,198.79,418.06" style="stroke:#9D0012;stroke-width:1.1;"/><polygon fill="#9D0012" points="198.79,477.29,202.79,468.29,198.79,472.29,194.79,468.29,198.79,477.29" style="stroke:#9D0012;stroke-width:1.1;"/><text fill="#000000" font-family="sans-serif" font-size="13" font-weight="bold" lengthAdjust="spacing" textLength="8.5757" x="189.4224" y="466.9601">1</text></g><!--link UniqueCompanyList to Company--><g class="link" data-entity-1="ent0013" data-entity-2="ent0014" data-link-type="dependency" data-source-line="54" id="lnk49"><path codeLine="54" d="M217.02,505.31 C239.57,521.33 272.869,544.9846 295.499,561.0646" fill="none" id="UniqueCompanyList-to-Company" style="stroke:#9D0012;stroke-width:1.1;"/><polygon fill="#9D0012" points="300.39,564.54,295.3704,556.0663,296.3142,561.6439,290.7366,562.5876,300.39,564.54" style="stroke:#9D0012;stroke-width:1.1;"/><text fill="#000000" font-family="sans-serif" font-size="13" font-weight="bold" lengthAdjust="spacing" textLength="6.062" x="286.5108" y="554.2138">*</text></g><!--link Company to Name--><g class="link" data-entity-1="ent0014" data-entity-2="ent0017" data-link-type="composition" data-source-line="55" id="lnk50"><path codeLine="55" d="M318.79,604.56 C318.79,620.58 318.79,629.71 318.79,645.79" fill="none" id="Company-Name" style="stroke:#9D0012;stroke-width:1.1;"/><polygon fill="#9D0012" points="318.79,592.56,314.79,598.56,318.79,604.56,322.79,598.56,318.79,592.56" style="stroke:#9D0012;stroke-width:1.1;"/><polygon fill="#9D0012" points="318.79,651.79,322.79,642.79,318.79,646.79,314.79,642.79,318.79,651.79" style="stroke:#9D0012;stroke-width:1.1;"/></g><!--link Company to Phone--><g class="link" data-entity-1="ent0014" data-entity-2="ent0018" data-link-type="composition" data-source-line="56" id="lnk51"><path codeLine="56" d="M340.1747,601.0559 C356.1547,617.0759 370.494,631.4608 386.524,647.5408" fill="none" id="Company-Phone" style="stroke:#9D0012;stroke-width:1.1;"/><polygon fill="#9D0012" points="331.7,592.56,333.1054,599.6328,340.1747,601.0559,338.7693,593.9831,331.7,592.56" style="stroke:#9D0012;stroke-width:1.1;"/><polygon fill="#9D0012" points="390.76,651.79,387.2388,642.5921,387.23,648.249,381.5731,648.2402,390.76,651.79" style="stroke:#9D0012;stroke-width:1.1;"/></g><!--link Company to Email--><g class="link" data-entity-1="ent0014" data-entity-2="ent0016" data-link-type="composition" data-source-line="57" id="lnk52"><path codeLine="57" d="M290.423,599.4326 C267.493,615.4526 243.4181,632.2731 220.4081,648.3531" fill="none" id="Company-Email" style="stroke:#9D0012;stroke-width:1.1;"/><polygon fill="#9D0012" points="300.26,592.56,293.0506,592.7173,290.423,599.4326,297.6324,599.2753,300.26,592.56" style="stroke:#9D0012;stroke-width:1.1;"/><polygon fill="#9D0012" points="215.49,651.79,225.1584,649.9134,219.5884,648.9259,220.5759,643.3559,215.49,651.79" style="stroke:#9D0012;stroke-width:1.1;"/></g><!--link Company to Address--><g class="link" data-entity-1="ent0014" data-entity-2="ent0015" data-link-type="composition" data-source-line="58" id="lnk53"><path codeLine="58" d="M275.2985,597.0172 C234.6785,613.2672 182.2105,634.2707 142.2805,650.2507" fill="none" id="Company-Address" style="stroke:#9D0012;stroke-width:1.1;"/><polygon fill="#9D0012" points="286.44,592.56,279.3835,591.0747,275.2985,597.0172,282.355,598.5024,286.44,592.56" style="stroke:#9D0012;stroke-width:1.1;"/><polygon fill="#9D0012" points="136.71,652.48,146.5519,652.8497,141.3521,650.6222,143.5795,645.4224,136.71,652.48" style="stroke:#9D0012;stroke-width:1.1;"/></g><!--link Company to Tag--><g class="link" data-entity-1="ent0014" data-entity-2="ent0019" data-link-type="composition" data-source-line="59" id="lnk54"><path codeLine="59" d="M355.3371,597.9385 C387.5671,614.0985 426.2471,633.4893 458.1971,649.5193" fill="none" id="Company-Tag" style="stroke:#9D0012;stroke-width:1.1;"/><polygon fill="#9D0012" points="344.61,592.56,348.1807,598.825,355.3371,597.9385,351.7664,591.6736,344.61,592.56" style="stroke:#9D0012;stroke-width:1.1;"/><polygon fill="#9D0012" points="463.56,652.21,457.3095,644.5988,459.0909,649.9678,453.7219,651.7492,463.56,652.21" style="stroke:#9D0012;stroke-width:1.1;"/><text fill="#000000" font-family="sans-serif" font-size="13" font-weight="bold" lengthAdjust="spacing" textLength="6.062" x="449.629" y="643.8752">*</text></g><!--link DeliveryBook to UniqueDeliveryList--><g class="link" data-entity-1="ent0012" data-entity-2="ent0020" data-link-type="composition" data-source-line="61" id="lnk55"><path codeLine="61" d="M573.79,430.06 C573.79,446.08 573.79,455.21 573.79,471.29" fill="none" id="DeliveryBook-UniqueDeliveryList" style="stroke:#9D0012;stroke-width:1.1;"/><polygon fill="#9D0012" points="573.79,418.06,569.79,424.06,573.79,430.06,577.79,424.06,573.79,418.06" style="stroke:#9D0012;stroke-width:1.1;"/><polygon fill="#9D0012" points="573.79,477.29,577.79,468.29,573.79,472.29,569.79,468.29,573.79,477.29" style="stroke:#9D0012;stroke-width:1.1;"/><text fill="#000000" font-family="sans-serif" font-size="13" font-weight="bold" lengthAdjust="spacing" textLength="8.5757" x="564.4223" y="466.9601">1</text></g><!--link UniqueDeliveryList to Delivery--><g class="link" data-entity-1="ent0020" data-entity-2="ent0021" data-link-type="dependency" data-source-line="62" id="lnk56"><path codeLine="62" d="M570.14,505.31 C565.63,521.33 559.627,542.6848 555.097,558.7648" fill="none" id="UniqueDeliveryList-to-Delivery" style="stroke:#9D0012;stroke-width:1.1;"/><polygon fill="#9D0012" points="553.47,564.54,559.7606,556.9618,554.8258,559.7273,552.0603,554.7925,553.47,564.54" style="stroke:#9D0012;stroke-width:1.1;"/><text fill="#000000" font-family="sans-serif" font-size="13" font-weight="bold" lengthAdjust="spacing" textLength="6.062" x="547.7327" y="554.2138">*</text></g><!--link Delivery to Product--><g class="link" data-entity-1="ent0021" data-entity-2="ent0022" data-link-type="composition" data-source-line="63" id="lnk57"><path codeLine="63" d="M566.9379,602.1011 C579.1579,618.1211 588.934,630.9372 601.184,647.0172" fill="none" id="Delivery-Product" style="stroke:#9D0012;stroke-width:1.1;"/><polygon fill="#9D0012" points="559.66,592.56,560.1186,599.7565,566.9379,602.1011,566.4793,594.9046,559.66,592.56" style="stroke:#9D0012;stroke-width:1.1;"/><polygon fill="#9D0012" points="604.82,651.79,602.5479,642.2068,601.79,647.8127,596.1842,647.0548,604.82,651.79" style="stroke:#9D0012;stroke-width:1.1;"/></g><!--link Delivery to Company--><g class="link" data-entity-1="ent0021" data-entity-2="ent0014" data-link-type="composition" data-source-line="64" id="lnk58"><path codeLine="64" d="M507.58,578.61 C452.38,578.61 415.18,578.61 359.98,578.61" fill="none" id="Delivery-Company" style="stroke:#9D0012;stroke-width:1.1;"/><polygon fill="#9D0012" points="519.58,578.61,513.58,574.61,507.58,578.61,513.58,582.61,519.58,578.61" style="stroke:#9D0012;stroke-width:1.1;"/><polygon fill="#9D0012" points="353.98,578.61,362.98,582.61,358.98,578.61,362.98,574.61,353.98,578.61" style="stroke:#9D0012;stroke-width:1.1;"/><text fill="#000000" font-family="sans-serif" font-size="13" font-weight="bold" lengthAdjust="spacing" textLength="8.5757" x="362.1226" y="574.6647">1</text></g><!--link Delivery to Deadline--><g class="link" data-entity-1="ent0021" data-entity-2="ent0023" data-link-type="composition" data-source-line="65" id="lnk59"><path codeLine="65" d="M584.8455,598.1747 C615.1055,614.1947 650.4374,632.9024 680.8074,648.9824" fill="none" id="Delivery-Deadline" style="stroke:#9D0012;stroke-width:1.1;"/><polygon fill="#9D0012" points="574.24,592.56,577.6712,598.9025,584.8455,598.1747,581.4143,591.8322,574.24,592.56" style="stroke:#9D0012;stroke-width:1.1;"/><polygon fill="#9D0012" points="686.11,651.79,680.0278,644.0436,681.6912,649.4504,676.2844,651.1137,686.11,651.79" style="stroke:#9D0012;stroke-width:1.1;"/></g><!--link Delivery to Tag--><g class="link" data-entity-1="ent0021" data-entity-2="ent0019" data-link-type="composition" data-source-line="66" id="lnk60"><path codeLine="66" d="M533.5442,602.317 C522.0742,618.337 513.1423,630.8311 501.6323,646.9111" fill="none" id="Delivery-Tag" style="stroke:#9D0012;stroke-width:1.1;"/><polygon fill="#9D0012" points="540.53,592.56,533.7848,595.1099,533.5442,602.317,540.2894,599.7671,540.53,592.56" style="stroke:#9D0012;stroke-width:1.1;"/><polygon fill="#9D0012" points="498.14,651.79,506.6311,646.7998,501.0503,647.7242,500.1259,642.1434,498.14,651.79" style="stroke:#9D0012;stroke-width:1.1;"/><text fill="#000000" font-family="sans-serif" font-size="13" font-weight="bold" lengthAdjust="spacing" textLength="6.062" x="494.493" y="641.4638">*</text></g><!--link Company to I--><!--link UniqueCompanyList to I--><!--link Delivery to I--><!--reverse link I to UniqueDeliveryList--><!--link Name to Phone--><!--link Phone to Address--><!--link Address to Email--><!--link Email to Product--><!--link Product to Deadline--><!--link Deadline to Address--><!--link ModelManager to Company--><g class="link" data-entity-1="ent0009" data-entity-2="ent0014" data-link-type="dependency" data-source-line="81" id="lnk72"><path codeLine="81" d="M349.31,418.08 C343.19,450.04 328.5666,526.4767 322.4266,558.5967" fill="none" id="ModelManager-to-Company" style="stroke:#9D0012;stroke-width:1.1;"/><polygon fill="#9D0012" points="321.3,564.49,326.9187,556.4011,322.2388,559.5789,319.061,554.899,321.3,564.49" style="stroke:#9D0012;stroke-width:1.1;"/><text fill="#000000" font-family="sans-serif" font-size="13" font-weight="bold" lengthAdjust="spacing" textLength="6.062" x="315.1313" y="554.1454">*</text></g><!--link ModelManager to Delivery--><g class="link" data-entity-1="ent0009" data-entity-2="ent0021" data-link-type="dependency" data-source-line="82" id="lnk73"><path codeLine="82" d="M366.67,418.08 C403.37,450.04 493.3354,528.4294 530.2154,560.5494" fill="none" id="ModelManager-to-Delivery" style="stroke:#9D0012;stroke-width:1.1;"/><polygon fill="#9D0012" points="534.74,564.49,530.5802,555.5627,530.9695,561.2062,525.3261,561.5955,534.74,564.49" style="stroke:#9D0012;stroke-width:1.1;"/><text fill="#000000" font-family="sans-serif" font-size="13" font-weight="bold" lengthAdjust="spacing" textLength="6.062" x="522.096" y="554.1454">*</text></g><?plantuml-src ZLDTRziW57tths3UMwLOodjaQKrRjL9IHr7tj4qJCiH1mU21lIhQzj_d3ou6GzVbmP1pp_tWSFZ0HCaxGf5khvncJLVpH5-OQB32DS9AoTUNCoilWcgDrjbw6TnABXNQ5tVtk-_RObSS7KB9iTQtkBnKIdQ2XDJaq0TnHT5U4ieHrjC6qCtcICiMYuhJFF-LR8ToADric6YfEk6oHx-A8yMa4FpwYH3LptWhvIKTAaNmTohSKSv-KdKDIhY1TsfyrbGT53rfhu15_oCxI7mZPrGgjPePLdZQCRh7eXSKIYt7SRfuHuMmO3ywkfLrWyLrntHhS8FudSs_-nepcEaPrzHi3sSfOF-2Axy3z7PQ00JfIfAkd8EOS1QhzuG-Feo_v0z0ZumGAegkrQmtEuHzDCjo8sRYw8Yohib-vr53kN8jURwKxZK0S-erUN_e7Teb7WEOo5UHnGUBCxoHl8bMYbNdTfMZT9sYVz0uFG4hQ6T9NMCeYuF42ObbBHMSquTTBEfVrCqAoWQE3H0qSc_IsSNJEXMPBEiYnhakP3pkGlOHkE3GPJIdvvR5i9xvGyYEQry4RCnuvcKug7kZS4W_oJuW7xRpmYbMNyxZE_asH9zYMbh249_B-NZiL40O7T6d3iBFA1nX4d_yXa7GtAmXORgdyHifROGpQqXmH9esRq-mSFd2OD4WgF4N?></g></svg>
