<?plantuml 1.2026.2?><svg xmlns="http://www.w3.org/2000/svg" xmlns:xlink="http://www.w3.org/1999/xlink" contentStyleType="text/css" data-diagram-type="CLASS" height="498px" preserveAspectRatio="none" style="width:684px;height:498px;background:#FFFFFF;" version="1.1" viewBox="0 0 684 498" width="684px" zoomAndPan="magnify"><defs/><g><!--cluster Parser classes--><g class="cluster" data-qualified-name="Parser classes" data-source-line="9" id="ent0004"><rect fill="#FFFFFF" height="411.49" rx="2.5" ry="2.5" style="stroke:#000000;stroke-width:1;" width="547" x="7" y="81.25"/><text fill="#000000" font-family="sans-serif" font-size="16" font-weight="bold" lengthAdjust="spacing" textLength="117.1016" x="221.9492" y="98.7188">Parser classes</text></g><!--class Parser--><g class="entity" data-qualified-name="Parser classes.Parser" data-source-line="10" id="ent0005"><rect fill="#3333C4" height="44.4971" rx="2.5" ry="2.5" style="stroke:#FFFFFF;stroke-width:1;" width="80.2163" x="282.89" y="118.25"/><text fill="#FFFFFF" font-family="Arial" font-size="15" lengthAdjust="spacing" textLength="74.2163" x="285.89" y="137.3198">&#171;interface&#187;</text><text fill="#FFFFFF" font-family="Arial" font-size="15" lengthAdjust="spacing" textLength="44.1797" x="300.9083" y="154.5684">Parser</text></g><!--class AddressBookParser--><g class="entity" data-qualified-name="Parser classes.AddressBookParser" data-source-line="11" id="ent0006"><rect fill="#3333C4" height="27.2485" rx="2.5" ry="2.5" style="stroke:#FFFFFF;stroke-width:1;" width="139.396" x="398.3" y="126.87"/><text fill="#FFFFFF" font-family="Arial" font-size="15" lengthAdjust="spacing" textLength="133.396" x="401.3" y="145.9398">AddressBookParser</text></g><!--class XYZCommandParser--><g class="entity" data-qualified-name="Parser classes.XYZCommandParser" data-source-line="12" id="ent0007"><rect fill="#3333C4" height="27.2485" rx="2.5" ry="2.5" style="stroke:#FFFFFF;stroke-width:1;" width="148.5439" x="321.73" y="248.37"/><text fill="#FFFFFF" font-family="Arial" font-size="15" lengthAdjust="spacing" textLength="142.5439" x="324.73" y="267.4398">XYZCommandParser</text></g><!--class CliSyntax--><g class="entity" data-qualified-name="Parser classes.CliSyntax" data-source-line="13" id="ent0008"><rect fill="#3333C4" height="27.2485" rx="2.5" ry="2.5" style="stroke:#FFFFFF;stroke-width:1;" width="69.3545" x="361.32" y="361.24"/><text fill="#FFFFFF" font-family="Arial" font-size="15" lengthAdjust="spacing" textLength="63.3545" x="364.32" y="380.3098">CliSyntax</text></g><!--class ParserUtil--><g class="entity" data-qualified-name="Parser classes.ParserUtil" data-source-line="14" id="ent0009"><rect fill="#3333C4" height="27.2485" rx="2.5" ry="2.5" style="stroke:#FFFFFF;stroke-width:1;" width="71.8447" x="466.08" y="361.24"/><text fill="#FFFFFF" font-family="Arial" font-size="15" lengthAdjust="spacing" textLength="65.8447" x="469.08" y="380.3098">ParserUtil</text></g><!--class ArgumentMultimap--><g class="entity" data-qualified-name="Parser classes.ArgumentMultimap" data-source-line="15" id="ent0010"><rect fill="#3333C4" height="27.2485" rx="2.5" ry="2.5" style="stroke:#FFFFFF;stroke-width:1;" width="131.8813" x="23.06" y="361.24"/><text fill="#FFFFFF" font-family="Arial" font-size="15" lengthAdjust="spacing" textLength="125.8813" x="26.06" y="380.3098">ArgumentMultimap</text></g><!--class ArgumentTokenizer--><g class="entity" data-qualified-name="Parser classes.ArgumentTokenizer" data-source-line="16" id="ent0011"><rect fill="#3333C4" height="27.2485" rx="2.5" ry="2.5" style="stroke:#FFFFFF;stroke-width:1;" width="136.8911" x="189.55" y="361.24"/><text fill="#FFFFFF" font-family="Arial" font-size="15" lengthAdjust="spacing" textLength="130.8911" x="192.55" y="380.3098">ArgumentTokenizer</text></g><!--class Prefix--><g class="entity" data-qualified-name="Parser classes.Prefix" data-source-line="17" id="ent0012"><rect fill="#3333C4" height="27.2485" rx="2.5" ry="2.5" style="stroke:#FFFFFF;stroke-width:1;" width="50" x="371" y="449.49"/><text fill="#FFFFFF" font-family="Arial" font-size="15" lengthAdjust="spacing" textLength="38.3423" x="376.8289" y="468.5598">Prefix</text></g><!--class Command--><g class="entity" data-qualified-name="Command" data-source-line="6" id="ent0002"><rect fill="#3333C4" height="44.4971" rx="2.5" ry="2.5" style="stroke:#FFFFFF;stroke-width:1;" width="75.1919" x="578.4" y="239.75"/><text fill="#FFFFFF" font-family="Arial" font-size="15" lengthAdjust="spacing" textLength="63.3765" x="584.3077" y="258.8198">{abstract}</text><text fill="#FFFFFF" font-family="Arial" font-size="15" lengthAdjust="spacing" textLength="69.1919" x="581.4" y="276.0684">Command</text></g><!--class XYZCommand--><g class="entity" data-qualified-name="XYZCommand" data-source-line="7" id="ent0003"><rect fill="#3333C4" height="27.2485" rx="2.5" ry="2.5" style="stroke:#FFFFFF;stroke-width:1;" width="104.3643" x="572.82" y="361.24"/><text fill="#FFFFFF" font-family="Arial" font-size="15" lengthAdjust="spacing" textLength="98.3643" x="575.82" y="380.3098">XYZCommand</text></g><!--class HiddenOutside--><g class="entity" data-qualified-name="HiddenOutside" data-source-line="20" id="ent0013"><rect fill="#FFFFFF" height="27.2485" rx="2.5" ry="2.5" style="stroke:#FFFFFF;stroke-width:1;" width="105.2285" x="415.39" y="7"/><text fill="#FFFFFF" font-family="Arial" font-size="15" lengthAdjust="spacing" textLength="99.2285" x="418.39" y="26.0698">HiddenOutside</text></g><!--link HiddenOutside to AddressBookParser--><g class="link" data-entity-1="ent0013" data-entity-2="ent0006" data-link-type="dependency" data-source-line="21" id="lnk14"><path codeLine="21" d="M468,34.69 C468,57.35 468,97.68 468,120.37" fill="none" id="HiddenOutside-to-AddressBookParser" style="stroke:#101086;stroke-width:1.1;stroke-dasharray:7,7;"/><polygon fill="#101086" points="468,126.37,472,117.37,468,121.37,464,117.37,468,126.37" style="stroke:#101086;stroke-width:1.1;"/></g><!--link AddressBookParser to XYZCommandParser--><g class="link" data-entity-1="ent0006" data-entity-2="ent0007" data-link-type="dependency" data-source-line="23" id="lnk15"><path codeLine="23" d="M460.29,154.29 C446.51,177.16 420.8655,219.7202 406.9655,242.8002" fill="none" id="AddressBookParser-to-XYZCommandParser" style="stroke:#101086;stroke-width:1.1;stroke-dasharray:7,7;"/><polygon fill="#101086" points="403.87,247.94,411.9398,242.2939,406.4496,243.6568,405.0867,238.1666,403.87,247.94" style="stroke:#101086;stroke-width:1.1;"/><text fill="#000000" font-family="sans-serif" font-size="13" font-weight="bold" lengthAdjust="spacing" textLength="55.7769" x="437.31" y="206.3184">&#171;create&#187;</text></g><!--link XYZCommandParser to XYZCommand--><g class="link" data-entity-1="ent0007" data-entity-2="ent0003" data-link-type="dependency" data-source-line="25" id="lnk16"><path codeLine="25" d="M422.72,275.93 C466.73,297.24 548.5694,336.866 592.6994,358.226" fill="none" id="XYZCommandParser-to-XYZCommand" style="stroke:#101086;stroke-width:1.1;stroke-dasharray:7,7;"/><polygon fill="#101086" points="598.1,360.84,591.7417,353.3185,593.5995,358.6616,588.2564,360.5194,598.1,360.84" style="stroke:#101086;stroke-width:1.1;"/><text fill="#000000" font-family="sans-serif" font-size="13" font-weight="bold" lengthAdjust="spacing" textLength="55.7769" x="532.01" y="327.8084">&#171;create&#187;</text></g><!--link AddressBookParser to Command--><g class="link" data-entity-1="ent0006" data-entity-2="ent0002" data-link-type="dependency" data-source-line="26" id="lnk17"><path codeLine="26" d="M484.12,154.51 C509.37,174.9 553.8412,210.8114 584.4912,235.5514" fill="none" id="AddressBookParser-to-Command" style="stroke:#101086;stroke-width:1.1;stroke-dasharray:7,7;"/><polygon fill="#101086" points="589.16,239.32,584.6691,230.5546,585.2693,236.1795,579.6444,236.7797,589.16,239.32" style="stroke:#101086;stroke-width:1.1;"/><text fill="#000000" font-family="sans-serif" font-size="13" font-weight="bold" lengthAdjust="spacing" textLength="38.3081" x="551.86" y="206.3184">&#171;use&#187;</text></g><!--reverse link Parser to XYZCommandParser--><g class="link" data-entity-1="ent0005" data-entity-2="ent0007" data-link-type="extension" data-source-line="27" id="lnk19"><path codeLine="27" d="M345.6038,178.5005 C360.7238,203.2505 375.61,227.61 388.06,248" fill="none" id="Parser-backto-XYZCommandParser" style="stroke:#101086;stroke-width:1.1;stroke-dasharray:7,7;"/><polygon fill="none" points="336.22,163.14,340.4837,181.6284,350.724,175.3725,336.22,163.14" style="stroke:#101086;stroke-width:1.1;"/></g><!--link XYZCommandParser to ArgumentMultimap--><g class="link" data-entity-1="ent0007" data-entity-2="ent0010" data-link-type="dependency" data-source-line="28" id="lnk20"><path codeLine="28" d="M359.88,276.04 C300.76,297.39 189.6532,337.5118 130.6232,358.8318" fill="none" id="XYZCommandParser-to-ArgumentMultimap" style="stroke:#101086;stroke-width:1.1;stroke-dasharray:7,7;"/><polygon fill="#101086" points="124.98,360.87,134.8036,361.5749,129.6827,359.1715,132.086,354.0506,124.98,360.87" style="stroke:#101086;stroke-width:1.1;"/></g><!--link XYZCommandParser to ArgumentTokenizer--><g class="link" data-entity-1="ent0007" data-entity-2="ent0011" data-link-type="dependency" data-source-line="29" id="lnk21"><path codeLine="29" d="M379.9,275.93 C353.31,297.29 305.1971,335.9417 278.6771,357.2517" fill="none" id="XYZCommandParser-to-ArgumentTokenizer" style="stroke:#101086;stroke-width:1.1;stroke-dasharray:7,7;"/><polygon fill="#101086" points="274,361.01,283.5212,358.4907,277.8976,357.8781,278.5102,352.2545,274,361.01" style="stroke:#101086;stroke-width:1.1;"/></g><!--reverse link ArgumentMultimap to ArgumentTokenizer--><g class="link" data-entity-1="ent0010" data-entity-2="ent0011" data-link-type="dependency" data-source-line="30" id="lnk23"><path codeLine="30" d="M161.35,374.87 C172.71,374.87 178.07,374.87 189.43,374.87" fill="none" id="ArgumentMultimap-backto-ArgumentTokenizer" style="stroke:#101086;stroke-width:1.1;stroke-dasharray:7,7;"/><polygon fill="#101086" points="155.35,374.87,164.35,378.87,160.35,374.87,164.35,370.87,155.35,374.87" style="stroke:#101086;stroke-width:1.1;"/></g><!--link XYZCommandParser to CliSyntax--><g class="link" data-entity-1="ent0007" data-entity-2="ent0008" data-link-type="dependency" data-source-line="31" id="lnk24"><path codeLine="31" d="M396,275.71 C396,296.99 396,333.55 396,354.96" fill="none" id="XYZCommandParser-to-CliSyntax" style="stroke:#101086;stroke-width:1.1;stroke-dasharray:7,7;"/><polygon fill="#101086" points="396,360.96,400,351.96,396,355.96,392,351.96,396,360.96" style="stroke:#101086;stroke-width:1.1;"/></g><!--link CliSyntax to Prefix--><g class="link" data-entity-1="ent0008" data-entity-2="ent0012" data-link-type="dependency" data-source-line="32" id="lnk25"><path codeLine="32" d="M396,388.97 C396,405.27 396,426.95 396,443.18" fill="none" id="CliSyntax-to-Prefix" style="stroke:#101086;stroke-width:1.1;stroke-dasharray:7,7;"/><polygon fill="#101086" points="396,449.18,400,440.18,396,444.18,392,440.18,396,449.18" style="stroke:#101086;stroke-width:1.1;"/></g><!--link XYZCommandParser to ParserUtil--><g class="link" data-entity-1="ent0007" data-entity-2="ent0009" data-link-type="dependency" data-source-line="33" id="lnk26"><path codeLine="33" d="M408.16,275.71 C428.5,296.99 465.0436,335.2132 485.5136,356.6232" fill="none" id="XYZCommandParser-to-ParserUtil" style="stroke:#101086;stroke-width:1.1;stroke-dasharray:7,7;"/><polygon fill="#101086" points="489.66,360.96,486.3316,351.6906,486.2047,357.346,480.5493,357.2191,489.66,360.96" style="stroke:#101086;stroke-width:1.1;"/></g><!--link ParserUtil to Prefix--><g class="link" data-entity-1="ent0009" data-entity-2="ent0012" data-link-type="dependency" data-source-line="34" id="lnk27"><path codeLine="34" d="M485.9,388.97 C465.86,405.27 436.5043,429.1635 416.5543,445.3935" fill="none" id="ParserUtil-to-Prefix" style="stroke:#101086;stroke-width:1.1;stroke-dasharray:7,7;"/><polygon fill="#101086" points="411.9,449.18,421.4058,446.6032,415.7786,446.0246,416.3572,440.3974,411.9,449.18" style="stroke:#101086;stroke-width:1.1;"/></g><!--link ArgumentTokenizer to Prefix--><g class="link" data-entity-1="ent0011" data-entity-2="ent0012" data-link-type="dependency" data-source-line="35" id="lnk28"><path codeLine="35" d="M278.96,388.97 C305.05,405.27 344.2419,429.7702 370.2119,446.0002" fill="none" id="ArgumentTokenizer-to-Prefix" style="stroke:#101086;stroke-width:1.1;stroke-dasharray:7,7;"/><polygon fill="#101086" points="375.3,449.18,369.7877,441.0182,371.0599,446.5302,365.548,447.8023,375.3,449.18" style="stroke:#101086;stroke-width:1.1;"/></g><!--reverse link Command to XYZCommand--><g class="link" data-entity-1="ent0002" data-entity-2="ent0003" data-link-type="extension" data-source-line="36" id="lnk30"><path codeLine="36" d="M619.2149,302.5711 C621.0549,325.2611 622.43,342.22 623.95,360.94" fill="none" id="Command-backto-XYZCommand" style="stroke:#101086;stroke-width:1.1;"/><polygon fill="none" points="617.76,284.63,613.2345,303.0561,625.1953,302.0861,617.76,284.63" style="stroke:#101086;stroke-width:1.1;"/></g><?plantuml-src ZP59QyCm48Nl-XMgUuuXq5CnXiRG1L8SsXJQ4WXJIqc5PSbe8KcJ_FSwtZTAVHg_-VH6UdF5HCGjeLYR0wTkQXEETCn42WeI34h9tVARHR6WMkEfE-qt0ycbmlFmuIbO1-4yV5alRrfCn47h6KJnLaaho816ABWGs3d2bpOA8dDUYK0c2GZYOD2uh4li_UEp4b2QkSAMOcS1IbDLZABQELQMdiU4eMe34VNzbIYmtBGeI-wE49KzRYPbtD6RMHqvuEpr80pio_-Y-MOOh_pKrYPKc6VB3KiWxSbB6LF1Vcg_XQ8RjaVdAeb7HWWLeJMQPLkvliy_r5LTrn-vDXf8s2Lo9pAu_vPRx7cHec2oP13gTtF_HiGTUcH8HhTHgo_SqDIcxicliX-TEOZkJwf9Sg1WbzED-RTZUwTbbUlbRaRFjFRUb7NWvScHYtM1LieJcqvETPA_?></g></svg>
