<?plantuml 1.2026.2?><svg xmlns="http://www.w3.org/2000/svg" xmlns:xlink="http://www.w3.org/1999/xlink" contentStyleType="text/css" data-diagram-type="SEQUENCE" height="403px" preserveAspectRatio="none" style="width:679px;height:403px;background:#FFFFFF;" version="1.1" viewBox="0 0 679 403" width="679px" zoomAndPan="magnify"><defs/><g><rect fill="#C8C8FA" height="384.7715" style="stroke:#181818;stroke-width:0.5;" width="496.4502" x="47.6812" y="6"/><text fill="#FFFFFF" font-family="sans-serif" font-size="13" font-weight="bold" lengthAdjust="spacing" textLength="35.585" x="275.9714" y="18.5684">Logic</text><rect fill="#F97181" height="384.7715" style="stroke:#181818;stroke-width:0.5;" width="92" x="575.6777" y="6"/><text fill="#FFFFFF" font-family="sans-serif" font-size="13" font-weight="bold" lengthAdjust="spacing" textLength="40.5615" x="599.2546" y="18.5684">Model</text><g><title>.LogicManager</title><rect fill="#FFFFFF" height="290.6621" style="stroke:#181818;stroke-width:1;" width="10" x="113.1357" y="88.1094"/></g><g><title>.DeliveryBookParser</title><rect fill="#FFFFFF" height="84.7988" style="stroke:#181818;stroke-width:1;" width="10" x="286.2148" y="117.4199"/></g><g><title>s.SelectCommand</title><rect fill="#FFFFFF" height="31.4883" style="stroke:#181818;stroke-width:1;" width="10" x="457.7222" y="141.4199"/></g><g><title>s.SelectCommand</title><rect fill="#FFFFFF" height="103.9316" style="stroke:#181818;stroke-width:1;" width="10" x="457.7222" y="231.5293"/></g><g><title>.Model</title><rect fill="#FFFFFF" height="14" style="stroke:#181818;stroke-width:1;" width="10" x="616.6777" y="285.1504"/></g><rect fill="#FFFFFF" height="60.6211" style="stroke:#000000;stroke-width:1.5;" width="298.3647" x="375.313" y="246.5293"/><g class="participant-lifeline" data-entity-uid="part1" data-qualified-name="LogicManager" id="part1-lifeline"><g><title>.LogicManager</title><rect fill="#000000" fill-opacity="0.00000" height="339.9727" width="8" x="114.1357" y="56.7988"/><line style="stroke:#181818;stroke-width:0.5;stroke-dasharray:5,5;" x1="117.6812" x2="117.6812" y1="56.7988" y2="396.7715"/></g></g><g class="participant-lifeline" data-entity-uid="part2" data-qualified-name="DeliveryBookParser" id="part2-lifeline"><g><title>.DeliveryBookParser</title><rect fill="#000000" fill-opacity="0.00000" height="339.9727" width="8" x="287.2148" y="56.7988"/><line style="stroke:#181818;stroke-width:0.5;stroke-dasharray:5,5;" x1="291.1167" x2="291.1167" y1="56.7988" y2="396.7715"/></g></g><g class="participant-lifeline" data-entity-uid="part3" data-qualified-name="SelectCommand" id="part3-lifeline"><g><title>s.SelectCommand</title><rect fill="#000000" fill-opacity="0.00000" height="240.6074" width="8" x="458.7222" y="156.1641"/><line style="stroke:#181818;stroke-width:0.5;stroke-dasharray:5,5;" x1="462.313" x2="462.313" y1="156.1641" y2="396.7715"/></g></g><g class="participant-lifeline" data-entity-uid="part4" data-qualified-name="Model" id="part4-lifeline"><g><title>.Model</title><rect fill="#000000" fill-opacity="0.00000" height="339.9727" width="8" x="617.6777" y="56.7988"/><line style="stroke:#181818;stroke-width:0.5;stroke-dasharray:5,5;" x1="621.6777" x2="621.6777" y1="56.7988" y2="396.7715"/></g></g><g class="participant participant-head" data-entity-uid="part1" data-qualified-name="LogicManager" id="part1-head"><rect fill="#3333C4" height="30.4883" rx="2.5" ry="2.5" style="stroke:#181818;stroke-width:0.5;" width="112.9092" x="61.6812" y="25.3105"/><text fill="#FFFFFF" font-family="sans-serif" font-size="14" lengthAdjust="spacing" textLength="98.9092" x="68.6812" y="45.8457">:LogicManager</text></g><g class="participant participant-head" data-entity-uid="part2" data-qualified-name="DeliveryBookParser" id="part2-head"><rect fill="#3333C4" height="30.4883" rx="2.5" ry="2.5" style="stroke:#181818;stroke-width:0.5;" width="148.1963" x="217.1167" y="25.3105"/><text fill="#FFFFFF" font-family="sans-serif" font-size="14" lengthAdjust="spacing" textLength="134.1963" x="224.1167" y="45.8457">:DeliveryBookParser</text></g><g class="participant participant-head" data-entity-uid="part4" data-qualified-name="Model" id="part4-head"><rect fill="#9D0012" height="30.4883" rx="2.5" ry="2.5" style="stroke:#181818;stroke-width:0.5;" width="64" x="589.6777" y="25.3105"/><text fill="#FFFFFF" font-family="sans-serif" font-size="14" lengthAdjust="spacing" textLength="45.7461" x="598.8047" y="45.8457">:Model</text></g><g><title>.LogicManager</title><rect fill="#FFFFFF" height="290.6621" style="stroke:#181818;stroke-width:1;" width="10" x="113.1357" y="88.1094"/></g><g><title>.DeliveryBookParser</title><rect fill="#FFFFFF" height="84.7988" style="stroke:#181818;stroke-width:1;" width="10" x="286.2148" y="117.4199"/></g><g><title>s.SelectCommand</title><rect fill="#FFFFFF" height="31.4883" style="stroke:#181818;stroke-width:1;" width="10" x="457.7222" y="141.4199"/></g><g><title>s.SelectCommand</title><rect fill="#FFFFFF" height="103.9316" style="stroke:#181818;stroke-width:1;" width="10" x="457.7222" y="231.5293"/></g><g><title>.Model</title><rect fill="#FFFFFF" height="14" style="stroke:#181818;stroke-width:1;" width="10" x="616.6777" y="285.1504"/></g><g class="message" data-entity-1="part1" data-entity-2="part1" id="msg1"><polygon fill="#181818" points="101.1357,84.1094,111.1357,88.1094,101.1357,92.1094,105.1357,88.1094" style="stroke:#181818;stroke-width:1;"/><line style="stroke:#181818;stroke-width:1;" x1="0" x2="107.1357" y1="88.1094" y2="88.1094"/><text fill="#000000" font-family="sans-serif" font-size="13" lengthAdjust="spacing" textLength="94.1357" x="9.5" y="83.3672">execute(select)</text></g><g class="message" data-entity-1="part1" data-entity-2="part2" id="msg2"><polygon fill="#181818" points="274.2148,113.4199,284.2148,117.4199,274.2148,121.4199,278.2148,117.4199" style="stroke:#181818;stroke-width:1;"/><line style="stroke:#181818;stroke-width:1;" x1="123.1357" x2="280.2148" y1="117.4199" y2="117.4199"/><text fill="#000000" font-family="sans-serif" font-size="13" lengthAdjust="spacing" textLength="144.0791" x="132.6357" y="112.6777">parseCommand(select)</text></g><g class="message" data-entity-1="part2" data-entity-2="part3" id="msg3"><polygon fill="#181818" points="383.313,127.4199,393.313,131.4199,383.313,135.4199,387.313,131.4199" style="stroke:#181818;stroke-width:1;"/><line style="stroke:#181818;stroke-width:1;" x1="296.2148" x2="389.313" y1="131.4199" y2="131.4199"/></g><rect fill="#3333C4" height="30.4883" rx="2.5" ry="2.5" style="stroke:#181818;stroke-width:0.5;" width="134.8184" x="395.313" y="125.4199"/><text fill="#FFFFFF" font-family="sans-serif" font-size="14" lengthAdjust="spacing" textLength="120.8184" x="402.313" y="145.9551">s:SelectCommand</text><g class="message" data-entity-1="part3" data-entity-2="part2" id="msg5"><polygon fill="#181818" points="307.2148,168.9082,297.2148,172.9082,307.2148,176.9082,303.2148,172.9082" style="stroke:#181818;stroke-width:1;"/><line style="stroke:#181818;stroke-width:1;stroke-dasharray:2,2;" x1="301.2148" x2="461.7222" y1="172.9082" y2="172.9082"/></g><g class="message" data-entity-1="part2" data-entity-2="part1" id="msg6"><polygon fill="#181818" points="134.1357,198.2188,124.1357,202.2188,134.1357,206.2188,130.1357,202.2188" style="stroke:#181818;stroke-width:1;"/><line style="stroke:#181818;stroke-width:1;stroke-dasharray:2,2;" x1="128.1357" x2="290.2148" y1="202.2188" y2="202.2188"/><text fill="#000000" font-family="sans-serif" font-size="13" lengthAdjust="spacing" textLength="6.627" x="203.8618" y="197.4766">s</text></g><g class="message" data-entity-1="part1" data-entity-2="part3" id="msg7"><polygon fill="#181818" points="445.7222,227.5293,455.7222,231.5293,445.7222,235.5293,449.7222,231.5293" style="stroke:#181818;stroke-width:1;"/><line style="stroke:#181818;stroke-width:1;" x1="123.1357" x2="451.7222" y1="231.5293" y2="231.5293"/><text fill="#000000" font-family="sans-serif" font-size="13" lengthAdjust="spacing" textLength="57.7446" x="261.5566" y="226.7871">execute()</text></g><path d="M375.313,246.5293 L449.7598,246.5293 L449.7598,253.8398 L439.7598,263.8398 L375.313,263.8398 L375.313,246.5293" fill="#EEEEEE" style="stroke:#000000;stroke-width:1.5;"/><rect fill="none" height="60.6211" style="stroke:#000000;stroke-width:1.5;" width="298.3647" x="375.313" y="246.5293"/><text fill="#000000" font-family="sans-serif" font-size="13" font-weight="bold" lengthAdjust="spacing" textLength="29.4468" x="390.313" y="260.0977">loop</text><text fill="#000000" font-family="sans-serif" font-size="11" font-weight="bold" lengthAdjust="spacing" textLength="196.394" x="464.7598" y="259.1641">[for Delivery in selectedDeliveries]</text><g class="message" data-entity-1="part3" data-entity-2="part4" id="msg8"><polygon fill="#181818" points="604.6777,281.1504,614.6777,285.1504,604.6777,289.1504,608.6777,285.1504" style="stroke:#181818;stroke-width:1;"/><line style="stroke:#181818;stroke-width:1;" x1="467.7222" x2="610.6777" y1="285.1504" y2="285.1504"/><text fill="#000000" font-family="sans-serif" font-size="13" lengthAdjust="spacing" textLength="129.9556" x="477.2222" y="280.4082">setDeliverySelected()</text></g><g class="message" data-entity-1="part4" data-entity-2="part3" id="msg9"><polygon fill="#181818" points="478.7222,295.1504,468.7222,299.1504,478.7222,303.1504,474.7222,299.1504" style="stroke:#181818;stroke-width:1;"/><line style="stroke:#181818;stroke-width:1;stroke-dasharray:2,2;" x1="472.7222" x2="620.6777" y1="299.1504" y2="299.1504"/></g><g class="message" data-entity-1="part3" data-entity-2="part1" id="msg10"><polygon fill="#181818" points="134.1357,331.4609,124.1357,335.4609,134.1357,339.4609,130.1357,335.4609" style="stroke:#181818;stroke-width:1;"/><line style="stroke:#181818;stroke-width:1;stroke-dasharray:2,2;" x1="128.1357" x2="461.7222" y1="335.4609" y2="335.4609"/><text fill="#000000" font-family="sans-serif" font-size="13" lengthAdjust="spacing" textLength="35.877" x="274.9905" y="330.7188">result</text></g><line style="stroke:#A80036;stroke-width:2;" x1="453.7222" x2="471.7222" y1="355.7715" y2="373.7715"/><line style="stroke:#A80036;stroke-width:2;" x1="453.7222" x2="471.7222" y1="373.7715" y2="355.7715"/><g class="message" data-entity-1="part1" data-entity-2="part1" id="msg12"><polygon fill="#181818" points="11,374.7715,1,378.7715,11,382.7715,7,378.7715" style="stroke:#181818;stroke-width:1;"/><line style="stroke:#181818;stroke-width:1;stroke-dasharray:2,2;" x1="5" x2="117.1357" y1="378.7715" y2="378.7715"/></g><?plantuml-src VLBBJiCm4BplLomzqKEGk4Qe4hI0a585KMuLgjnuALOTExATqluzQHAAdGUtU3mpkpFEbL2PB3cXTIT9DqMPIx1xeGfcM8xtnkZl9wtSwdoBXMH20Mpr4HEz4nacwVFBV3DFa_HjytuBbSY9J1HCEPp4DMN95DkHcI2pw0E-jADRa1G7CgS7hVUlpDXMtOV7FMoy8acPc-iyPuhN-W09f5ITgqnDiANc976PBXwJiM0rfVRiaIzUwsWMvesHZfILZgvjlSWKMER4WJaAU021gd8Po1rZSVvei_GD-nA0pD3vAcW11hohYI7duXh24FOP3MuAdCRaGwFxdLdVOIXMjwrmgx_IfwCvfDO5VcfpiKUXiAcKU8i9ijsyi_Rngnt9_KfNhSmVLzC06dRKgzVBrp1fkDnECOPiATrulns3zPVWdDJ7FqRM6NtgbhE-YwBWz_G6-lWF?></g></svg>
