<?plantuml 1.2026.2?><svg xmlns="http://www.w3.org/2000/svg" xmlns:xlink="http://www.w3.org/1999/xlink" contentStyleType="text/css" data-diagram-type="CLASS" height="812px" preserveAspectRatio="none" style="width:1160px;height:812px;background:#FFFFFF;" version="1.1" viewBox="0 0 1160 812" width="1160px" zoomAndPan="magnify"><defs/><g><!--cluster StoragePackage--><g class="cluster" data-qualified-name="StoragePackage" data-source-line="6" id="ent0002"><rect fill="#FFFFFF" height="749.49" rx="2.5" ry="2.5" style="stroke:#000000;stroke-width:1;" width="1147" x="7" y="57.24"/><text fill="#000000" font-family="sans-serif" font-size="16" font-weight="bold" lengthAdjust="spacing" textLength="62.4531" x="549.2734" y="74.7088">Storage</text></g><!--cluster UserPrefs Storage--><g class="cluster" data-qualified-name="StoragePackage.UserPrefs Storage" data-source-line="8" id="ent0003"><rect fill="#F4F6F6" height="184.74" rx="2.5" ry="2.5" style="stroke:#000000;stroke-width:1;" width="188" x="291" y="336.24"/><text fill="#000000" font-family="sans-serif" font-size="16" font-weight="bold" lengthAdjust="spacing" textLength="147.3438" x="311.3281" y="353.7088">UserPrefs Storage</text></g><!--cluster User Storage--><g class="cluster" data-qualified-name="StoragePackage.User Storage" data-source-line="13" id="ent0006"><rect fill="#F4F6F6" height="446.49" rx="2.5" ry="2.5" style="stroke:#000000;stroke-width:1;" width="367" x="503" y="336.24"/><text fill="#000000" font-family="sans-serif" font-size="16" font-weight="bold" lengthAdjust="spacing" textLength="105.2031" x="633.8984" y="353.7088">User Storage</text></g><!--cluster AddressBook Storage--><g class="cluster" data-qualified-name="StoragePackage.AddressBook Storage" data-source-line="25" id="ent0015"><rect fill="#F4F6F6" height="446.49" rx="2.5" ry="2.5" style="stroke:#000000;stroke-width:1;" width="236" x="894" y="336.24"/><text fill="#000000" font-family="sans-serif" font-size="16" font-weight="bold" lengthAdjust="spacing" textLength="176.0938" x="923.9531" y="353.7088">AddressBook Storage</text></g><!--cluster DeliveryBook Storage--><g class="cluster" data-qualified-name="StoragePackage.DeliveryBook Storage" data-source-line="33" id="ent0021"><rect fill="#F4F6F6" height="446.49" rx="2.5" ry="2.5" style="stroke:#000000;stroke-width:1;" width="236" x="31" y="336.24"/><text fill="#000000" font-family="sans-serif" font-size="16" font-weight="bold" lengthAdjust="spacing" textLength="176.3047" x="60.8477" y="353.7088">DeliveryBook Storage</text></g><!--class Storage--><g class="entity" data-qualified-name="StoragePackage.Storage" data-source-line="22" id="ent0013"><rect fill="#A38300" height="44.4971" rx="2.5" ry="2.5" style="stroke:#FFFFFF;stroke-width:1;" width="80.2163" x="414.89" y="94.24"/><text fill="#FFFFFF" font-family="Arial" font-size="15" lengthAdjust="spacing" textLength="74.2163" x="417.89" y="113.3098">&#171;interface&#187;</text><text fill="#FFFFFF" font-family="Arial" font-size="15" lengthAdjust="spacing" textLength="52.5366" x="428.7298" y="130.5584">Storage</text></g><!--class StorageManager--><g class="entity" data-qualified-name="StoragePackage.StorageManager" data-source-line="23" id="ent0014"><rect fill="#A38300" height="27.2485" rx="2.5" ry="2.5" style="stroke:#FFFFFF;stroke-width:1;" width="117.7383" x="396.13" y="198.74"/><text fill="#FFFFFF" font-family="Arial" font-size="15" lengthAdjust="spacing" textLength="111.7383" x="399.13" y="217.8098">StorageManager</text></g><!--class I--><g class="entity" data-qualified-name="StoragePackage.I" data-source-line="41" id="ent0027"><rect fill="#FFFFFF" height="27.2485" rx="2.5" ry="2.5" style="stroke:#FFFFFF;stroke-width:1;" width="50" x="430" y="285.99"/><text fill="#FFFFFF" font-family="Arial" font-size="15" lengthAdjust="spacing" textLength="4.1675" x="452.9163" y="305.0598">I</text></g><!--class UserPrefsStorage--><g class="entity" data-qualified-name="StoragePackage.UserPrefs Storage.UserPrefsStorage" data-source-line="9" id="ent0004"><rect fill="#A38300" height="44.4971" rx="2.5" ry="2.5" style="stroke:#FFFFFF;stroke-width:1;" width="125.2163" x="326.39" y="373.24"/><text fill="#FFFFFF" font-family="Arial" font-size="15" lengthAdjust="spacing" textLength="74.2163" x="351.89" y="392.3098">&#171;interface&#187;</text><text fill="#FFFFFF" font-family="Arial" font-size="15" lengthAdjust="spacing" textLength="119.2163" x="329.39" y="409.5584">UserPrefsStorage</text></g><!--class JsonUserPrefsStorage--><g class="entity" data-qualified-name="StoragePackage.UserPrefs Storage.JsonUserPrefsStorage" data-source-line="10" id="ent0005"><rect fill="#A38300" height="27.2485" rx="2.5" ry="2.5" style="stroke:#FFFFFF;stroke-width:1;" width="156.9009" x="306.55" y="477.74"/><text fill="#FFFFFF" font-family="Arial" font-size="15" lengthAdjust="spacing" textLength="150.9009" x="309.55" y="496.8098">JsonUserPrefsStorage</text></g><!--class UserStorage--><g class="entity" data-qualified-name="StoragePackage.User Storage.UserStorage" data-source-line="14" id="ent0007"><rect fill="#A38300" height="44.4971" rx="2.5" ry="2.5" style="stroke:#FFFFFF;stroke-width:1;" width="90.2065" x="538.9" y="373.24"/><text fill="#FFFFFF" font-family="Arial" font-size="15" lengthAdjust="spacing" textLength="74.2163" x="546.8951" y="392.3098">&#171;interface&#187;</text><text fill="#FFFFFF" font-family="Arial" font-size="15" lengthAdjust="spacing" textLength="84.2065" x="541.9" y="409.5584">UserStorage</text></g><!--class JsonUserStorage--><g class="entity" data-qualified-name="StoragePackage.User Storage.JsonUserStorage" data-source-line="15" id="ent0008"><rect fill="#A38300" height="27.2485" rx="2.5" ry="2.5" style="stroke:#FFFFFF;stroke-width:1;" width="121.8911" x="531.05" y="477.74"/><text fill="#FFFFFF" font-family="Arial" font-size="15" lengthAdjust="spacing" textLength="115.8911" x="534.05" y="496.8098">JsonUserStorage</text></g><!--class JsonSerializableUser--><g class="entity" data-qualified-name="StoragePackage.User Storage.JsonSerializableUser" data-source-line="16" id="ent0009"><rect fill="#A38300" height="27.2485" rx="2.5" ry="2.5" style="stroke:#FFFFFF;stroke-width:1;" width="146.896" x="521.55" y="564.98"/><text fill="#FFFFFF" font-family="Arial" font-size="15" lengthAdjust="spacing" textLength="140.896" x="524.55" y="584.0498">JsonSerializableUser</text></g><!--class JsonAdaptedUser--><g class="entity" data-qualified-name="StoragePackage.User Storage.JsonAdaptedUser" data-source-line="17" id="ent0010"><rect fill="#A38300" height="27.2485" rx="2.5" ry="2.5" style="stroke:#FFFFFF;stroke-width:1;" width="125.2383" x="535.38" y="652.23"/><text fill="#FFFFFF" font-family="Arial" font-size="15" lengthAdjust="spacing" textLength="119.2383" x="538.38" y="671.2998">JsonAdaptedUser</text></g><!--class UJsonAdaptedCompany--><g class="entity" data-qualified-name="StoragePackage.User Storage.UJsonAdaptedCompany" data-source-line="18" id="ent0011"><rect fill="#A38300" height="27.2485" rx="2.5" ry="2.5" style="stroke:#FFFFFF;stroke-width:1;" width="157.7651" x="519.12" y="739.48"/><text fill="#FFFFFF" font-family="Arial" font-size="15" lengthAdjust="spacing" textLength="151.7651" x="522.12" y="758.5498">JsonAdaptedCompany</text></g><!--class JsonAdaptedVehicle--><g class="entity" data-qualified-name="StoragePackage.User Storage.JsonAdaptedVehicle" data-source-line="19" id="ent0012"><rect fill="#A38300" height="27.2485" rx="2.5" ry="2.5" style="stroke:#FFFFFF;stroke-width:1;" width="142.7651" x="711.62" y="739.48"/><text fill="#FFFFFF" font-family="Arial" font-size="15" lengthAdjust="spacing" textLength="136.7651" x="714.62" y="758.5498">JsonAdaptedVehicle</text></g><!--class AddressBookStorage--><g class="entity" data-qualified-name="StoragePackage.AddressBook Storage.AddressBookStorage" data-source-line="26" id="ent0016"><rect fill="#A38300" height="44.4971" rx="2.5" ry="2.5" style="stroke:#FFFFFF;stroke-width:1;" width="147.7529" x="910.12" y="373.24"/><text fill="#FFFFFF" font-family="Arial" font-size="15" lengthAdjust="spacing" textLength="74.2163" x="946.8883" y="392.3098">&#171;interface&#187;</text><text fill="#FFFFFF" font-family="Arial" font-size="15" lengthAdjust="spacing" textLength="141.7529" x="913.12" y="409.5584">AddressBookStorage</text></g><!--class JsonAddressBookStorage--><g class="entity" data-qualified-name="StoragePackage.AddressBook Storage.JsonAddressBookStorage" data-source-line="27" id="ent0017"><rect fill="#A38300" height="27.2485" rx="2.5" ry="2.5" style="stroke:#FFFFFF;stroke-width:1;" width="179.4375" x="916.28" y="477.74"/><text fill="#FFFFFF" font-family="Arial" font-size="15" lengthAdjust="spacing" textLength="173.4375" x="919.28" y="496.8098">JsonAddressBookStorage</text></g><!--class JsonSerializableAddressBook--><g class="entity" data-qualified-name="StoragePackage.AddressBook Storage.JsonSerializableAddressBook" data-source-line="28" id="ent0018"><rect fill="#A38300" height="27.2485" rx="2.5" ry="2.5" style="stroke:#FFFFFF;stroke-width:1;" width="204.4424" x="909.78" y="564.98"/><text fill="#FFFFFF" font-family="Arial" font-size="15" lengthAdjust="spacing" textLength="198.4424" x="912.78" y="584.0498">JsonSerializableAddressBook</text></g><!--class JsonAdaptedCompany--><g class="entity" data-qualified-name="StoragePackage.AddressBook Storage.JsonAdaptedCompany" data-source-line="29" id="ent0019"><rect fill="#A38300" height="27.2485" rx="2.5" ry="2.5" style="stroke:#FFFFFF;stroke-width:1;" width="157.7651" x="933.12" y="652.23"/><text fill="#FFFFFF" font-family="Arial" font-size="15" lengthAdjust="spacing" textLength="151.7651" x="936.12" y="671.2998">JsonAdaptedCompany</text></g><!--class CJsonAdaptedTag--><g class="entity" data-qualified-name="StoragePackage.AddressBook Storage.CJsonAdaptedTag" data-source-line="30" id="ent0020"><rect fill="#A38300" height="27.2485" rx="2.5" ry="2.5" style="stroke:#FFFFFF;stroke-width:1;" width="119.4155" x="952.29" y="739.48"/><text fill="#FFFFFF" font-family="Arial" font-size="15" lengthAdjust="spacing" textLength="113.4155" x="955.29" y="758.5498">JsonAdaptedTag</text></g><!--class DeliveryBookStorage--><g class="entity" data-qualified-name="StoragePackage.DeliveryBook Storage.DeliveryBookStorage" data-source-line="34" id="ent0022"><rect fill="#A38300" height="44.4971" rx="2.5" ry="2.5" style="stroke:#FFFFFF;stroke-width:1;" width="154.4033" x="96.8" y="373.24"/><text fill="#FFFFFF" font-family="Arial" font-size="15" lengthAdjust="spacing" textLength="74.2163" x="136.8935" y="392.3098">&#171;interface&#187;</text><text fill="#FFFFFF" font-family="Arial" font-size="15" lengthAdjust="spacing" textLength="148.4033" x="99.8" y="409.5584">DeliverysBookStorage</text></g><!--class JsonDeliveryBookStorage--><g class="entity" data-qualified-name="StoragePackage.DeliveryBook Storage.JsonDeliveryBookStorage" data-source-line="35" id="ent0023"><rect fill="#A38300" height="27.2485" rx="2.5" ry="2.5" style="stroke:#FFFFFF;stroke-width:1;" width="178.5879" x="66.71" y="477.74"/><text fill="#FFFFFF" font-family="Arial" font-size="15" lengthAdjust="spacing" textLength="172.5879" x="69.71" y="496.8098">JsonDeliveryBookStorage</text></g><!--class JsonSerializableDeliveryBook--><g class="entity" data-qualified-name="StoragePackage.DeliveryBook Storage.JsonSerializableDeliveryBook" data-source-line="36" id="ent0024"><rect fill="#A38300" height="27.2485" rx="2.5" ry="2.5" style="stroke:#FFFFFF;stroke-width:1;" width="203.5928" x="47.2" y="564.98"/><text fill="#FFFFFF" font-family="Arial" font-size="15" lengthAdjust="spacing" textLength="197.5928" x="50.2" y="584.0498">JsonSerializableDeliveryBook</text></g><!--class JsonAdaptedDelivery--><g class="entity" data-qualified-name="StoragePackage.DeliveryBook Storage.JsonAdaptedDelivery" data-source-line="37" id="ent0025"><rect fill="#A38300" height="27.2485" rx="2.5" ry="2.5" style="stroke:#FFFFFF;stroke-width:1;" width="147.7456" x="75.13" y="652.23"/><text fill="#FFFFFF" font-family="Arial" font-size="15" lengthAdjust="spacing" textLength="141.7456" x="78.13" y="671.2998">JsonAdaptedDelivery</text></g><!--class DJsonAdaptedTag--><g class="entity" data-qualified-name="StoragePackage.DeliveryBook Storage.DJsonAdaptedTag" data-source-line="38" id="ent0026"><rect fill="#A38300" height="27.2485" rx="2.5" ry="2.5" style="stroke:#FFFFFF;stroke-width:1;" width="119.4155" x="89.29" y="739.48"/><text fill="#FFFFFF" font-family="Arial" font-size="15" lengthAdjust="spacing" textLength="113.4155" x="92.29" y="758.5498">JsonAdaptedTag</text></g><!--class HiddenOutside--><g class="entity" data-qualified-name="HiddenOutside" data-source-line="44" id="ent0028"><rect fill="#FFFFFF" height="27.2485" rx="2.5" ry="2.5" style="stroke:#FFFFFF;stroke-width:1;" width="105.2285" x="402.39" y="7"/><text fill="#FFFFFF" font-family="Arial" font-size="15" lengthAdjust="spacing" textLength="99.2285" x="405.39" y="26.0698">HiddenOutside</text></g><!--link HiddenOutside to Storage--><g class="link" data-entity-1="ent0028" data-entity-2="ent0013" data-link-type="dependency" data-source-line="45" id="lnk29"><path codeLine="45" d="M455,34.67 C455,49.99 455,69.61 455,87.9" fill="none" id="HiddenOutside-to-Storage" style="stroke:#A38300;stroke-width:1.1;stroke-dasharray:7,7;"/><polygon fill="#A38300" points="455,93.9,459,84.9,455,88.9,451,84.9,455,93.9" style="stroke:#A38300;stroke-width:1.1;"/></g><!--reverse link StorageManager to I--><!--link I to UserPrefsStorage--><!--link I to UserStorage--><!--link I to AddressBookStorage--><!--link I to DeliveryBookStorage--><!--reverse link Storage to StorageManager--><g class="link" data-entity-1="ent0013" data-entity-2="ent0014" data-link-type="extension" data-source-line="52" id="lnk37"><path codeLine="52" d="M455,156.79 C455,175.08 455,182.85 455,198.25" fill="none" id="Storage-backto-StorageManager" style="stroke:#A38300;stroke-width:1.1;stroke-dasharray:7,7;"/><polygon fill="none" points="455,138.79,449,156.79,461,156.79,455,138.79" style="stroke:#A38300;stroke-width:1.1;"/></g><!--link StorageManager to UserPrefsStorage--><g class="link" data-entity-1="ent0014" data-entity-2="ent0004" data-link-type="dependency" data-source-line="53" id="lnk38"><path codeLine="53" d="M445.81,226.4 C436.28,240.47 421.61,263.86 413,285.99 C401.67,315.12 395.9535,344.8954 392.6335,367.1954" fill="none" id="StorageManager-to-UserPrefsStorage" style="stroke:#A38300;stroke-width:1.1;"/><polygon fill="#A38300" points="391.75,373.13,397.0317,364.8171,392.4863,368.1845,389.1189,363.6391,391.75,373.13" style="stroke:#A38300;stroke-width:1.1;"/><text fill="#000000" font-family="sans-serif" font-size="13" font-weight="bold" lengthAdjust="spacing" textLength="8.5757" x="383.4799" y="362.3443">1</text></g><!--link StorageManager to UserStorage--><g class="link" data-entity-1="ent0014" data-entity-2="ent0007" data-link-type="dependency" data-source-line="54" id="lnk39"><path codeLine="54" d="M464.28,226.39 C486.23,257.21 538.0696,329.9926 565.1296,367.9926" fill="none" id="StorageManager-to-UserStorage" style="stroke:#A38300;stroke-width:1.1;"/><polygon fill="#A38300" points="568.61,372.88,566.6477,363.2286,565.7097,368.8071,560.1312,367.8691,568.61,372.88" style="stroke:#A38300;stroke-width:1.1;"/><text fill="#000000" font-family="sans-serif" font-size="13" font-weight="bold" lengthAdjust="spacing" textLength="8.5757" x="555.4754" y="362.3984">1</text></g><!--link StorageManager to AddressBookStorage--><g class="link" data-entity-1="ent0014" data-entity-2="ent0016" data-link-type="dependency" data-source-line="55" id="lnk40"><path codeLine="55" d="M496.83,226.42 C561.64,246.43 690.38,285.28 801,313.24 C831.43,320.93 840.74,316.88 870,328.24 C899.66,339.75 925.7018,355.001 947.9018,369.551" fill="none" id="StorageManager-to-AddressBookStorage" style="stroke:#A38300;stroke-width:1.1;"/><polygon fill="#A38300" points="952.92,372.84,947.5853,364.561,948.7381,370.0992,943.2,371.252,952.92,372.84" style="stroke:#A38300;stroke-width:1.1;"/><text fill="#000000" font-family="sans-serif" font-size="13" font-weight="bold" lengthAdjust="spacing" textLength="8.5757" x="935.5706" y="362.3477">1</text></g><!--link StorageManager to DeliveryBookStorage--><g class="link" data-entity-1="ent0014" data-entity-2="ent0022" data-link-type="dependency" data-source-line="56" id="lnk41"><path codeLine="56" d="M434.79,226.39 C386.97,257.21 271.523,331.6292 212.573,369.6292" fill="none" id="StorageManager-to-DeliveryBookStorage" style="stroke:#A38300;stroke-width:1.1;"/><polygon fill="#A38300" points="207.53,372.88,217.2618,371.3658,211.7325,370.171,212.9273,364.6418,207.53,372.88" style="stroke:#A38300;stroke-width:1.1;"/><text fill="#000000" font-family="sans-serif" font-size="13" font-weight="bold" lengthAdjust="spacing" textLength="8.5757" x="207.5431" y="362.3984">1</text></g><!--link Storage to UserPrefsStorage--><g class="link" data-entity-1="ent0013" data-entity-2="ent0004" data-link-type="extension" data-source-line="58" id="lnk42"><path codeLine="58" d="M425.76,139.19 C408.58,153.85 388.43,174.85 379,198.74 C355.51,258.24 367.0565,318.5867 377.4365,355.6567" fill="none" id="Storage-to-UserPrefsStorage" style="stroke:#A38300;stroke-width:1.1;"/><polygon fill="none" points="382.29,372.99,383.2143,354.0389,371.6587,357.2745,382.29,372.99" style="stroke:#A38300;stroke-width:1.1;"/></g><!--link Storage to UserStorage--><g class="link" data-entity-1="ent0013" data-entity-2="ent0007" data-link-type="extension" data-source-line="59" id="lnk43"><path codeLine="59" d="M481.02,139.19 C497.57,154.3 518.22,175.79 531,198.74 C563.3,256.72 574.46,317.5988 579.31,355.0788" fill="none" id="Storage-to-UserStorage" style="stroke:#A38300;stroke-width:1.1;"/><polygon fill="none" points="581.62,372.93,585.2604,354.3088,573.3596,355.8488,581.62,372.93" style="stroke:#A38300;stroke-width:1.1;"/></g><!--link Storage to AddressBookStorage--><g class="link" data-entity-1="ent0013" data-entity-2="ent0016" data-link-type="extension" data-source-line="60" id="lnk44"><path codeLine="60" d="M495.45,137.09 C570.14,173.48 734.42,254.49 870,328.24 C896.34,342.57 910.0957,350.402 932.3657,363.602" fill="none" id="Storage-to-AddressBookStorage" style="stroke:#A38300;stroke-width:1.1;"/><polygon fill="none" points="947.85,372.78,935.425,358.4406,929.3063,368.7635,947.85,372.78" style="stroke:#A38300;stroke-width:1.1;"/></g><!--link Storage to DeliveryBookStorage--><g class="link" data-entity-1="ent0013" data-entity-2="ent0022" data-link-type="extension" data-source-line="61" id="lnk45"><path codeLine="61" d="M429.85,139.09 C411.33,155.2 385.7,177.92 364,198.74 C300.09,260.05 240.4442,323.074 206.3142,359.684" fill="none" id="Storage-to-DeliveryBookStorage" style="stroke:#A38300;stroke-width:1.1;"/><polygon fill="none" points="194.04,372.85,210.7028,363.7753,201.9255,355.5926,194.04,372.85" style="stroke:#A38300;stroke-width:1.1;"/></g><!--reverse link UserPrefsStorage to JsonUserPrefsStorage--><g class="link" data-entity-1="ent0004" data-entity-2="ent0005" data-link-type="extension" data-source-line="63" id="lnk47"><path codeLine="63" d="M387.3226,435.7736 C386.5426,454.0536 386.22,461.84 385.56,477.25" fill="none" id="UserPrefsStorage-backto-JsonUserPrefsStorage" style="stroke:#A38300;stroke-width:1.1;stroke-dasharray:7,7;"/><polygon fill="none" points="388.09,417.79,381.3281,435.5179,393.3172,436.0294,388.09,417.79" style="stroke:#A38300;stroke-width:1.1;"/></g><!--reverse link UserStorage to JsonUserStorage--><g class="link" data-entity-1="ent0007" data-entity-2="ent0008" data-link-type="extension" data-source-line="65" id="lnk49"><path codeLine="65" d="M587.3408,435.7256 C588.8908,454.0056 589.57,461.84 590.88,477.25" fill="none" id="UserStorage-backto-JsonUserStorage" style="stroke:#A38300;stroke-width:1.1;stroke-dasharray:7,7;"/><polygon fill="none" points="585.82,417.79,581.3623,436.2326,593.3193,435.2187,585.82,417.79" style="stroke:#A38300;stroke-width:1.1;"/></g><!--link JsonUserStorage to JsonSerializableUser--><g class="link" data-entity-1="ent0008" data-entity-2="ent0009" data-link-type="dependency" data-source-line="66" id="lnk50"><path codeLine="66" d="M592.46,505.31 C593.02,521.33 593.7574,542.4638 594.3274,558.5438" fill="none" id="JsonUserStorage-to-JsonSerializableUser" style="stroke:#A38300;stroke-width:1.1;stroke-dasharray:7,7;"/><polygon fill="#A38300" points="594.54,564.54,598.2187,555.4039,594.3629,559.5431,590.2237,555.6874,594.54,564.54" style="stroke:#A38300;stroke-width:1.1;"/></g><!--link JsonSerializableUser to JsonAdaptedUser--><g class="link" data-entity-1="ent0009" data-entity-2="ent0010" data-link-type="dependency" data-source-line="67" id="lnk51"><path codeLine="67" d="M595.46,592.56 C596.02,608.58 596.7574,629.7138 597.3274,645.7938" fill="none" id="JsonSerializableUser-to-JsonAdaptedUser" style="stroke:#A38300;stroke-width:1.1;stroke-dasharray:7,7;"/><polygon fill="#A38300" points="597.54,651.79,601.2187,642.6539,597.3629,646.7931,593.2237,642.9374,597.54,651.79" style="stroke:#A38300;stroke-width:1.1;"/></g><!--link JsonAdaptedUser to UJsonAdaptedCompany--><g class="link" data-entity-1="ent0010" data-entity-2="ent0011" data-link-type="dependency" data-source-line="68" id="lnk52"><path codeLine="68" d="M598,679.8 C598,695.83 598,716.96 598,733.04" fill="none" id="JsonAdaptedUser-to-UJsonAdaptedCompany" style="stroke:#A38300;stroke-width:1.1;stroke-dasharray:7,7;"/><polygon fill="#A38300" points="598,739.04,602,730.04,598,734.04,594,730.04,598,739.04" style="stroke:#A38300;stroke-width:1.1;"/></g><!--link JsonAdaptedUser to JsonAdaptedVehicle--><g class="link" data-entity-1="ent0010" data-entity-2="ent0012" data-link-type="dependency" data-source-line="69" id="lnk53"><path codeLine="69" d="M626.1,679.8 C660.87,695.83 714.2906,720.4492 749.1906,736.5292" fill="none" id="JsonAdaptedUser-to-JsonAdaptedVehicle" style="stroke:#A38300;stroke-width:1.1;stroke-dasharray:7,7;"/><polygon fill="#A38300" points="754.64,739.04,748.1398,731.6409,750.0988,736.9477,744.792,738.9068,754.64,739.04" style="stroke:#A38300;stroke-width:1.1;"/></g><!--reverse link AddressBookStorage to JsonAddressBookStorage--><g class="link" data-entity-1="ent0016" data-entity-2="ent0017" data-link-type="extension" data-source-line="71" id="lnk55"><path codeLine="71" d="M993.1026,435.3139 C997.3926,453.5939 999.32,461.84 1002.93,477.25" fill="none" id="AddressBookStorage-backto-JsonAddressBookStorage" style="stroke:#A38300;stroke-width:1.1;stroke-dasharray:7,7;"/><polygon fill="none" points="988.99,417.79,987.2613,436.6847,998.9439,433.943,988.99,417.79" style="stroke:#A38300;stroke-width:1.1;"/></g><!--link JsonAddressBookStorage to JsonSerializableAddressBook--><g class="link" data-entity-1="ent0017" data-entity-2="ent0018" data-link-type="dependency" data-source-line="72" id="lnk56"><path codeLine="72" d="M1006.91,505.31 C1008.04,521.33 1009.5294,542.4748 1010.6594,558.5548" fill="none" id="JsonAddressBookStorage-to-JsonSerializableAddressBook" style="stroke:#A38300;stroke-width:1.1;stroke-dasharray:7,7;"/><polygon fill="#A38300" points="1011.08,564.54,1014.4393,555.2817,1010.7295,559.5523,1006.4589,555.8425,1011.08,564.54" style="stroke:#A38300;stroke-width:1.1;"/></g><!--link JsonSerializableAddressBook to JsonAdaptedCompany--><g class="link" data-entity-1="ent0018" data-entity-2="ent0019" data-link-type="dependency" data-source-line="73" id="lnk57"><path codeLine="73" d="M1012,592.56 C1012,608.58 1012,629.71 1012,645.79" fill="none" id="JsonSerializableAddressBook-to-JsonAdaptedCompany" style="stroke:#A38300;stroke-width:1.1;"/><polygon fill="#A38300" points="1012,651.79,1016,642.79,1012,646.79,1008,642.79,1012,651.79" style="stroke:#A38300;stroke-width:1.1;"/><text fill="#000000" font-family="sans-serif" font-size="13" font-weight="bold" lengthAdjust="spacing" textLength="6.062" x="1004.9042" y="641.4638">*</text></g><!--link JsonAdaptedCompany to CJsonAdaptedTag--><g class="link" data-entity-1="ent0019" data-entity-2="ent0020" data-link-type="dependency" data-source-line="74" id="lnk58"><path codeLine="74" d="M1012,679.8 C1012,695.83 1012,716.96 1012,733.04" fill="none" id="JsonAdaptedCompany-to-CJsonAdaptedTag" style="stroke:#A38300;stroke-width:1.1;"/><polygon fill="#A38300" points="1012,739.04,1016,730.04,1012,734.04,1008,730.04,1012,739.04" style="stroke:#A38300;stroke-width:1.1;"/><text fill="#000000" font-family="sans-serif" font-size="13" font-weight="bold" lengthAdjust="spacing" textLength="6.062" x="1004.906" y="728.7138">*</text></g><!--reverse link DeliveryBookStorage to JsonDeliveryBookStorage--><g class="link" data-entity-1="ent0022" data-entity-2="ent0023" data-link-type="extension" data-source-line="76" id="lnk60"><path codeLine="76" d="M166.5258,435.4671 C163.0158,453.7471 161.47,461.84 158.51,477.25" fill="none" id="DeliveryBookStorage-backto-JsonDeliveryBookStorage" style="stroke:#A38300;stroke-width:1.1;stroke-dasharray:7,7;"/><polygon fill="none" points="169.92,417.79,160.6334,434.3357,172.4181,436.5985,169.92,417.79" style="stroke:#A38300;stroke-width:1.1;"/></g><!--link JsonDeliveryBookStorage to JsonSerializableDeliveryBook--><g class="link" data-entity-1="ent0023" data-entity-2="ent0024" data-link-type="dependency" data-source-line="77" id="lnk61"><path codeLine="77" d="M154.94,505.31 C153.62,521.33 151.8809,542.4801 150.5609,558.5601" fill="none" id="JsonDeliveryBookStorage-to-JsonSerializableDeliveryBook" style="stroke:#A38300;stroke-width:1.1;stroke-dasharray:7,7;"/><polygon fill="#A38300" points="150.07,564.54,154.7929,555.8974,150.4791,559.5568,146.8197,555.2429,150.07,564.54" style="stroke:#A38300;stroke-width:1.1;"/></g><!--link JsonSerializableDeliveryBook to JsonAdaptedDelivery--><g class="link" data-entity-1="ent0024" data-entity-2="ent0025" data-link-type="dependency" data-source-line="78" id="lnk62"><path codeLine="78" d="M149,592.56 C149,608.58 149,629.71 149,645.79" fill="none" id="JsonSerializableDeliveryBook-to-JsonAdaptedDelivery" style="stroke:#A38300;stroke-width:1.1;"/><polygon fill="#A38300" points="149,651.79,153,642.79,149,646.79,145,642.79,149,651.79" style="stroke:#A38300;stroke-width:1.1;"/><text fill="#000000" font-family="sans-serif" font-size="13" font-weight="bold" lengthAdjust="spacing" textLength="6.062" x="141.9041" y="641.4638">*</text></g><!--link JsonAdaptedDelivery to DJsonAdaptedTag--><g class="link" data-entity-1="ent0025" data-entity-2="ent0026" data-link-type="dependency" data-source-line="79" id="lnk63"><path codeLine="79" d="M149,679.8 C149,695.83 149,716.96 149,733.04" fill="none" id="JsonAdaptedDelivery-to-DJsonAdaptedTag" style="stroke:#A38300;stroke-width:1.1;"/><polygon fill="#A38300" points="149,739.04,153,730.04,149,734.04,145,730.04,149,739.04" style="stroke:#A38300;stroke-width:1.1;"/><text fill="#000000" font-family="sans-serif" font-size="13" font-weight="bold" lengthAdjust="spacing" textLength="6.062" x="141.906" y="728.7138">*</text></g><?plantuml-src bLHHRzCm47xFhp3X3QcHAg4zJP6wR8KXKAUrx0KGycAli-hQaPqmbOt_ZflMwSM-19Q7fhdlEzzzbyltHgXIDemJM-yapwfcAnEx4QgYXcu9DKO_hHv5kL7SMZBDfY5OQAaDMQuMjxCFLp-BnUV5BQ2KabfxGSlDskX6COoSL0wcQqwMjJRxExN-xyqHUJwHqg-Mcnl37pfIIjxEty_FvcVFIR6lHjBpSw5gRXveoVFyk-eokWHN8GmUSpzP7V6JFq7vLrKEY-BrukYI6q6b-4tl9Typ03HZjAev0z4KX0kzhQZQ7Gh6yVYSE-xUhsnbuZAWX7wZnwSlLBbV0yOqOyouXRdGUlFVqm8vi68SxaaO0U480J6UG7yqS9WhkcwRAFgntafSSYb-SRDxbLYV5Cc5fyMInb4e639ZnHuTaNmPIpwGhvsszZg5FWh6k5eqjHNEIJpSZsPPtcrFSaqctnvR-4TJJV9maG3Cz9DoXEYZn2d3AB8fCGaRRxyraZLLzd9I4g0JTqWwJUDsHtZ_e22D3p2nxZtNaLxomRPEA0eCjt30qSAObVhfHNqaWH52ekT45BTGg5DYmOuDpJDuRZcOPM8yn40Jt96y5cIAGmc8CcXW8zXX6TwbP5p6CTInGtzB1ip6Qy7U-60AegRdJcCWfgSpBoJMyKFx-Wi0?></g></svg>
