<?plantuml 1.2026.2?><svg xmlns="http://www.w3.org/2000/svg" xmlns:xlink="http://www.w3.org/1999/xlink" contentStyleType="text/css" data-diagram-type="CLASS" height="660px" preserveAspectRatio="none" style="width:1141px;height:660px;background:#FFFFFF;" version="1.1" viewBox="0 0 1141 660" width="1141px" zoomAndPan="magnify"><defs/><g><!--cluster UI--><g class="cluster" data-qualified-name="UI" data-source-line="6" id="ent0002"><rect fill="#FFFFFF" height="468.74" rx="2.5" ry="2.5" style="stroke:#181818;stroke-width:1;" width="939" x="7" y="59.25"/><text fill="#000000" font-family="sans-serif" font-size="14" font-weight="bold" lengthAdjust="spacing" textLength="14.9502" x="469.0249" y="74.7852">UI</text></g><!--cluster Model--><g class="cluster" data-qualified-name="Model" data-source-line="22" id="ent0016"><rect fill="#FFFFFF" height="94.25" rx="2.5" ry="2.5" style="stroke:#181818;stroke-width:1;" width="162" x="591" y="559.99"/><text fill="#000000" font-family="sans-serif" font-size="14" font-weight="bold" lengthAdjust="spacing" textLength="43.6816" x="650.1592" y="575.5252">Model</text></g><!--cluster Logic--><g class="cluster" data-qualified-name="Logic" data-source-line="26" id="ent0018"><rect fill="#FFFFFF" height="94.25" rx="2.5" ry="2.5" style="stroke:#181818;stroke-width:1;" width="157" x="978" y="162.75"/><text fill="#000000" font-family="sans-serif" font-size="14" font-weight="bold" lengthAdjust="spacing" textLength="38.3223" x="1037.3389" y="178.2852">Logic</text></g><!--class Ui--><g class="entity" data-qualified-name="UI.Ui" data-source-line="7" id="ent0003"><rect fill="#1D8900" height="44.4971" rx="2.5" ry="2.5" style="stroke:#FFFFFF;stroke-width:1;" width="80.2163" x="504.89" y="94.25"/><text fill="#FFFFFF" font-family="Arial" font-size="15" lengthAdjust="spacing" textLength="74.2163" x="507.89" y="113.3198">&#171;interface&#187;</text><text fill="#FFFFFF" font-family="Arial" font-size="15" lengthAdjust="spacing" textLength="14.165" x="537.9156" y="130.5684">Ui</text></g><!--class UiPart--><g class="entity" data-qualified-name="UI.UiPart" data-source-line="8" id="ent0004"><rect fill="#1D8900" height="44.4971" rx="2.5" ry="2.5" style="stroke:#FFFFFF;stroke-width:1;" width="69.3765" x="315.31" y="467.49"/><text fill="#FFFFFF" font-family="Arial" font-size="15" lengthAdjust="spacing" textLength="63.3765" x="318.31" y="486.5598">{abstract}</text><text fill="#FFFFFF" font-family="Arial" font-size="15" lengthAdjust="spacing" textLength="41.6748" x="329.1608" y="503.8084">UiPart</text></g><!--class RoutePanel--><g class="entity" data-qualified-name="UI.RoutePanel" data-source-line="9" id="ent0005"><rect fill="#1D8900" height="27.2485" rx="2.5" ry="2.5" style="stroke:#FFFFFF;stroke-width:1;" width="84.3911" x="91.8" y="380.25"/><text fill="#FFFFFF" font-family="Arial" font-size="15" lengthAdjust="spacing" textLength="78.3911" x="94.8" y="399.3198">RoutePanel</text></g><!--class UiManager--><g class="entity" data-qualified-name="UI.UiManager" data-source-line="10" id="ent0006"><rect fill="#1D8900" height="27.2485" rx="2.5" ry="2.5" style="stroke:#FFFFFF;stroke-width:1;" width="79.3667" x="620.32" y="102.88"/><text fill="#FFFFFF" font-family="Arial" font-size="15" lengthAdjust="spacing" textLength="73.3667" x="623.32" y="121.9498">UiManager</text></g><!--class MainWindow--><g class="entity" data-qualified-name="UI.MainWindow" data-source-line="11" id="ent0007"><rect fill="#1D8900" height="27.2485" rx="2.5" ry="2.5" style="stroke:#FFFFFF;stroke-width:1;" width="91.8618" x="384.07" y="205.75"/><text fill="#FFFFFF" font-family="Arial" font-size="15" lengthAdjust="spacing" textLength="85.8618" x="387.07" y="224.8198">MainWindow</text></g><!--class HelpWindow--><g class="entity" data-qualified-name="UI.HelpWindow" data-source-line="12" id="ent0008"><rect fill="#1D8900" height="27.2485" rx="2.5" ry="2.5" style="stroke:#FFFFFF;stroke-width:1;" width="90.1992" x="515.9" y="293"/><text fill="#FFFFFF" font-family="Arial" font-size="15" lengthAdjust="spacing" textLength="84.1992" x="518.9" y="312.0698">HelpWindow</text></g><!--class ResultDisplay--><g class="entity" data-qualified-name="UI.ResultDisplay" data-source-line="13" id="ent0009"><rect fill="#1D8900" height="27.2485" rx="2.5" ry="2.5" style="stroke:#FFFFFF;stroke-width:1;" width="97.6992" x="247.15" y="293"/><text fill="#FFFFFF" font-family="Arial" font-size="15" lengthAdjust="spacing" textLength="91.6992" x="250.15" y="312.0698">ResultDisplay</text></g><!--class CompanyListPanel--><g class="entity" data-qualified-name="UI.CompanyListPanel" data-source-line="14" id="ent0010"><rect fill="#1D8900" height="27.2485" rx="2.5" ry="2.5" style="stroke:#FFFFFF;stroke-width:1;" width="131.9033" x="641.05" y="293"/><text fill="#FFFFFF" font-family="Arial" font-size="15" lengthAdjust="spacing" textLength="125.9033" x="644.05" y="312.0698">CompanyListPanel</text></g><!--class CompanyCard--><g class="entity" data-qualified-name="UI.CompanyCard" data-source-line="15" id="ent0011"><rect fill="#1D8900" height="27.2485" rx="2.5" ry="2.5" style="stroke:#FFFFFF;stroke-width:1;" width="102.709" x="643.65" y="380.25"/><text fill="#FFFFFF" font-family="Arial" font-size="15" lengthAdjust="spacing" textLength="96.709" x="646.65" y="399.3198">CompanyCard</text></g><!--class StatusBarFooter--><g class="entity" data-qualified-name="UI.StatusBarFooter" data-source-line="16" id="ent0012"><rect fill="#1D8900" height="27.2485" rx="2.5" ry="2.5" style="stroke:#FFFFFF;stroke-width:1;" width="115.2188" x="97.39" y="293"/><text fill="#FFFFFF" font-family="Arial" font-size="15" lengthAdjust="spacing" textLength="109.2188" x="100.39" y="312.0698">StatusBarFooter</text></g><!--class CommandBox--><g class="entity" data-qualified-name="UI.CommandBox" data-source-line="17" id="ent0013"><rect fill="#1D8900" height="27.2485" rx="2.5" ry="2.5" style="stroke:#FFFFFF;stroke-width:1;" width="101.0391" x="379.48" y="293"/><text fill="#FFFFFF" font-family="Arial" font-size="15" lengthAdjust="spacing" textLength="95.0391" x="382.48" y="312.0698">CommandBox</text></g><!--class DeliveryListPanel--><g class="entity" data-qualified-name="UI.DeliveryListPanel" data-source-line="18" id="ent0014"><rect fill="#1D8900" height="27.2485" rx="2.5" ry="2.5" style="stroke:#FFFFFF;stroke-width:1;" width="121.8838" x="808.06" y="293"/><text fill="#FFFFFF" font-family="Arial" font-size="15" lengthAdjust="spacing" textLength="115.8838" x="811.06" y="312.0698">DeliveryListPanel</text></g><!--class DeliveryCard--><g class="entity" data-qualified-name="UI.DeliveryCard" data-source-line="19" id="ent0015"><rect fill="#1D8900" height="27.2485" rx="2.5" ry="2.5" style="stroke:#FFFFFF;stroke-width:1;" width="92.6895" x="781.66" y="380.25"/><text fill="#FFFFFF" font-family="Arial" font-size="15" lengthAdjust="spacing" textLength="86.6895" x="784.66" y="399.3198">DeliveryCard</text></g><!--class HiddenModel--><g class="entity" data-qualified-name="Model.HiddenModel" data-source-line="23" id="ent0017"><rect fill="#FFFFFF" height="27.2485" rx="2.5" ry="2.5" style="stroke:#FFFFFF;stroke-width:1;" width="94.3887" x="614.81" y="602.99"/><text fill="#FFFFFF" font-family="Arial" font-size="15" lengthAdjust="spacing" textLength="88.3887" x="617.81" y="622.0598">HiddenModel</text></g><!--class HiddenLogic--><g class="entity" data-qualified-name="Logic.HiddenLogic" data-source-line="27" id="ent0019"><rect fill="#FFFFFF" height="27.2485" rx="2.5" ry="2.5" style="stroke:#FFFFFF;stroke-width:1;" width="89.3936" x="1002.3" y="205.75"/><text fill="#FFFFFF" font-family="Arial" font-size="15" lengthAdjust="spacing" textLength="83.3936" x="1005.3" y="224.8198">HiddenLogic</text></g><!--class HiddenOutside--><g class="entity" data-qualified-name="HiddenOutside" data-source-line="30" id="ent0020"><rect fill="#FFFFFF" height="27.2485" rx="2.5" ry="2.5" style="stroke:#FFFFFF;stroke-width:1;" width="105.2285" x="492.39" y="7"/><text fill="#FFFFFF" font-family="Arial" font-size="15" lengthAdjust="spacing" textLength="99.2285" x="495.39" y="26.0698">HiddenOutside</text></g><!--link HiddenOutside to Ui--><g class="link" data-entity-1="ent0020" data-entity-2="ent0003" data-link-type="dependency" data-source-line="31" id="lnk21"><path codeLine="31" d="M545,34.68 C545,50 545,69.62 545,87.9" fill="none" id="HiddenOutside-to-Ui" style="stroke:#0E4100;stroke-width:1.1;stroke-dasharray:7,7;"/><polygon fill="#0E4100" points="545,93.9,549,84.9,545,88.9,541,84.9,545,93.9" style="stroke:#0E4100;stroke-width:1.1;"/></g><!--reverse link Ui to UiManager--><g class="link" data-entity-1="ent0003" data-entity-2="ent0006" data-link-type="extension" data-source-line="33" id="lnk23"><path codeLine="33" d="M603.43,116.5 C614.98,116.5 608.54,116.5 620.09,116.5" fill="none" id="Ui-backto-UiManager" style="stroke:#0E4100;stroke-width:1.1;stroke-dasharray:7,7;"/><polygon fill="none" points="585.43,116.5,603.43,122.5,603.43,110.5,585.43,116.5" style="stroke:#0E4100;stroke-width:1.1;"/></g><!--link UiManager to MainWindow--><g class="link" data-entity-1="ent0006" data-entity-2="ent0007" data-link-type="dependency" data-source-line="34" id="lnk24"><path codeLine="34" d="M630.4,130.48 C586.36,149.8 509.5246,183.4897 465.3446,202.8697" fill="none" id="UiManager-to-MainWindow" style="stroke:#0E4100;stroke-width:1.1;"/><polygon fill="#0E4100" points="459.85,205.28,469.6987,205.3277,464.4288,203.2714,466.4851,198.0015,459.85,205.28" style="stroke:#0E4100;stroke-width:1.1;"/><text fill="#000000" font-family="sans-serif" font-size="13" font-weight="bold" lengthAdjust="spacing" textLength="8.5757" x="461.488" y="194.9427">1</text></g><!--link MainWindow to CommandBox--><g class="link" data-entity-1="ent0007" data-entity-2="ent0013" data-link-type="composition" data-source-line="35" id="lnk25"><path codeLine="35" d="M430,245.32 C430,261.34 430,270.47 430,286.55" fill="none" id="MainWindow-CommandBox" style="stroke:#0E4100;stroke-width:1.1;"/><polygon fill="#0E4100" points="430,233.32,426,239.32,430,245.32,434,239.32,430,233.32" style="stroke:#0E4100;stroke-width:1.1;"/><polygon fill="#0E4100" points="430,292.55,434,283.55,430,287.55,426,283.55,430,292.55" style="stroke:#0E4100;stroke-width:1.1;"/><text fill="#000000" font-family="sans-serif" font-size="13" font-weight="bold" lengthAdjust="spacing" textLength="8.5757" x="420.6313" y="282.2201">1</text></g><!--link MainWindow to ResultDisplay--><g class="link" data-entity-1="ent0007" data-entity-2="ent0009" data-link-type="composition" data-source-line="36" id="lnk26"><path codeLine="36" d="M399.5242,239.7596 C374.3342,255.7796 346.8826,273.2498 321.6026,289.3298" fill="none" id="MainWindow-ResultDisplay" style="stroke:#0E4100;stroke-width:1.1;"/><polygon fill="#0E4100" points="409.65,233.32,402.4406,233.1646,399.5242,239.7596,406.7337,239.9151,409.65,233.32" style="stroke:#0E4100;stroke-width:1.1;"/><polygon fill="#0E4100" points="316.54,292.55,326.2808,291.0948,320.7589,289.8665,321.9871,284.3446,316.54,292.55" style="stroke:#0E4100;stroke-width:1.1;"/><text fill="#000000" font-family="sans-serif" font-size="13" font-weight="bold" lengthAdjust="spacing" textLength="8.5757" x="314.7454" y="282.2201">1</text></g><!--link MainWindow to CompanyListPanel--><g class="link" data-entity-1="ent0007" data-entity-2="ent0010" data-link-type="composition" data-source-line="37" id="lnk27"><path codeLine="37" d="M483.8389,236.9404 C535.9789,252.9904 606.7653,274.7755 658.8953,290.8155" fill="none" id="MainWindow-CompanyListPanel" style="stroke:#0E4100;stroke-width:1.1;"/><polygon fill="#0E4100" points="472.37,233.41,476.9277,238.9982,483.8389,236.9404,479.2813,231.3522,472.37,233.41" style="stroke:#0E4100;stroke-width:1.1;"/><polygon fill="#0E4100" points="664.63,292.58,657.2043,286.1101,659.8511,291.1096,654.8516,293.7563,664.63,292.58" style="stroke:#0E4100;stroke-width:1.1;"/><text fill="#000000" font-family="sans-serif" font-size="13" font-weight="bold" lengthAdjust="spacing" textLength="8.5757" x="639.6366" y="282.2612">1</text></g><!--link MainWindow to StatusBarFooter--><g class="link" data-entity-1="ent0007" data-entity-2="ent0012" data-link-type="composition" data-source-line="38" id="lnk28"><path codeLine="38" d="M376.4686,236.9647 C324.7186,253.0147 254.5511,274.764 202.7911,290.804" fill="none" id="MainWindow-StatusBarFooter" style="stroke:#0E4100;stroke-width:1.1;"/><polygon fill="#0E4100" points="387.93,233.41,381.0144,231.3669,376.4686,236.9647,383.3842,239.0078,387.93,233.41" style="stroke:#0E4100;stroke-width:1.1;"/><polygon fill="#0E4100" points="197.06,292.58,206.8407,293.7367,201.8359,291.1,204.4727,286.0952,197.06,292.58" style="stroke:#0E4100;stroke-width:1.1;"/><text fill="#000000" font-family="sans-serif" font-size="13" font-weight="bold" lengthAdjust="spacing" textLength="8.5757" x="203.201" y="282.2612">1</text></g><!--link MainWindow to HelpWindow--><g class="link" data-entity-1="ent0007" data-entity-2="ent0008" data-link-type="dependency" data-source-line="39" id="lnk29"><path codeLine="39" d="M449.9,233.32 C474.52,249.34 511.1811,273.1974 535.8911,289.2774" fill="none" id="MainWindow-to-HelpWindow" style="stroke:#0E4100;stroke-width:1.1;"/><polygon fill="#0E4100" points="540.92,292.55,535.5583,284.2885,536.7292,289.8229,531.1949,290.9938,540.92,292.55" style="stroke:#0E4100;stroke-width:1.1;"/><text fill="#000000" font-family="sans-serif" font-size="13" font-weight="bold" lengthAdjust="spacing" textLength="23.5752" x="506.3811" y="282.2201">0..1</text></g><!--link MainWindow to DeliveryListPanel--><g class="link" data-entity-1="ent0007" data-entity-2="ent0014" data-link-type="composition" data-source-line="40" id="lnk30"><path codeLine="40" d="M487.9298,231.6185 C567.5098,247.0785 712.8901,275.306 801.8601,292.586" fill="none" id="MainWindow-DeliveryListPanel" style="stroke:#0E4100;stroke-width:1.1;"/><polygon fill="#0E4100" points="476.15,229.33,481.2771,234.4008,487.9298,231.6185,482.8027,226.5476,476.15,229.33" style="stroke:#0E4100;stroke-width:1.1;"/><polygon fill="#0E4100" points="807.75,293.73,799.6777,288.0874,802.8417,292.7767,798.1525,295.9407,807.75,293.73" style="stroke:#0E4100;stroke-width:1.1;"/><text fill="#000000" font-family="sans-serif" font-size="13" font-weight="bold" lengthAdjust="spacing" textLength="8.5757" x="791.4265" y="288.7052">1</text></g><!--link MainWindow to RoutePanel--><g class="link" data-entity-1="ent0007" data-entity-2="ent0005" data-link-type="composition" data-source-line="41" id="lnk31"><path codeLine="41" d="M371.738,223.7797 C285.568,229.6797 117.8,246.55 80,293 C57.23,320.98 90.0651,356.0728 113.2351,376.0428" fill="none" id="MainWindow-RoutePanel" style="stroke:#0E4100;stroke-width:1.1;"/><polygon fill="#0E4100" points="383.71,222.96,377.4508,219.3792,371.738,223.7797,377.9973,227.3605,383.71,222.96" style="stroke:#0E4100;stroke-width:1.1;"/><polygon fill="#0E4100" points="117.78,379.96,113.5742,371.0543,113.9926,376.6957,108.3513,377.1141,117.78,379.96" style="stroke:#0E4100;stroke-width:1.1;"/><text fill="#000000" font-family="sans-serif" font-size="13" font-weight="bold" lengthAdjust="spacing" textLength="8.5757" x="102.1826" y="369.4234">1</text></g><!--link CompanyListPanel to CompanyCard--><g class="link" data-entity-1="ent0010" data-entity-2="ent0011" data-link-type="dependency" data-source-line="43" id="lnk32"><path codeLine="43" d="M705.18,320.57 C702.92,336.59 699.9351,357.7784 697.6751,373.8584" fill="none" id="CompanyListPanel-to-CompanyCard" style="stroke:#0E4100;stroke-width:1.1;"/><polygon fill="#0E4100" points="696.84,379.8,702.0537,371.4443,697.5359,374.8487,694.1315,370.3309,696.84,379.8" style="stroke:#0E4100;stroke-width:1.1;"/><text fill="#000000" font-family="sans-serif" font-size="13" font-weight="bold" lengthAdjust="spacing" textLength="6.062" x="690.422" y="369.4701">*</text></g><!--link DeliveryListPanel to DeliveryCard--><g class="link" data-entity-1="ent0014" data-entity-2="ent0015" data-link-type="dependency" data-source-line="44" id="lnk33"><path codeLine="44" d="M862.77,320.57 C855.07,336.59 844.6196,358.3124 836.8896,374.3924" fill="none" id="DeliveryListPanel-to-DeliveryCard" style="stroke:#0E4100;stroke-width:1.1;"/><polygon fill="#0E4100" points="834.29,379.8,841.7944,373.4216,836.4563,375.2937,834.5843,369.9555,834.29,379.8" style="stroke:#0E4100;stroke-width:1.1;"/><text fill="#000000" font-family="sans-serif" font-size="13" font-weight="bold" lengthAdjust="spacing" textLength="6.062" x="829.5129" y="369.4701">*</text></g><!--link MainWindow to UiPart--><g class="link" data-entity-1="ent0007" data-entity-2="ent0004" data-link-type="extension" data-source-line="46" id="lnk34"><path codeLine="46" d="M383.72,222.02 C290.71,226.62 88.74,242.74 47.5,293 C30.82,313.32 16.06,358.86 56.5,407.49 C88.95,446.53 226.0249,472.2872 297.2449,482.2872" fill="none" id="MainWindow-to-UiPart" style="stroke:#0E4100;stroke-width:1.1;"/><polygon fill="none" points="315.07,484.79,298.0791,476.3455,296.4106,488.2289,315.07,484.79" style="stroke:#0E4100;stroke-width:1.1;"/></g><!--link MainWindow to UiPart--><!--link ResultDisplay to UiPart--><g class="link" data-entity-1="ent0009" data-entity-2="ent0004" data-link-type="extension" data-source-line="48" id="lnk35"><path codeLine="48" d="M299.88,320.65 C309.07,351.47 327.0869,411.8804 338.4169,449.8804" fill="none" id="ResultDisplay-to-UiPart" style="stroke:#0E4100;stroke-width:1.1;"/><polygon fill="none" points="343.56,467.13,344.1668,448.166,332.667,451.5948,343.56,467.13" style="stroke:#0E4100;stroke-width:1.1;"/></g><!--link CommandBox to UiPart--><g class="link" data-entity-1="ent0013" data-entity-2="ent0004" data-link-type="extension" data-source-line="49" id="lnk36"><path codeLine="49" d="M424.25,320.65 C410.63,351.47 383.6011,412.6639 366.8211,450.6639" fill="none" id="CommandBox-to-UiPart" style="stroke:#0E4100;stroke-width:1.1;"/><polygon fill="none" points="359.55,467.13,372.3098,453.0876,361.3324,448.2402,359.55,467.13" style="stroke:#0E4100;stroke-width:1.1;"/></g><!--link CompanyListPanel to UiPart--><g class="link" data-entity-1="ent0010" data-entity-2="ent0004" data-link-type="extension" data-source-line="50" id="lnk37"><path codeLine="50" d="M681.33,320.65 C618.41,352.57 472.5519,426.5652 400.9719,462.8852" fill="none" id="CompanyListPanel-to-UiPart" style="stroke:#0E4100;stroke-width:1.1;"/><polygon fill="none" points="384.92,471.03,403.6868,468.2358,398.2569,457.5346,384.92,471.03" style="stroke:#0E4100;stroke-width:1.1;"/></g><!--link CompanyCard to UiPart--><g class="link" data-entity-1="ent0011" data-entity-2="ent0004" data-link-type="extension" data-source-line="51" id="lnk38"><path codeLine="51" d="M647.03,407.92 C576.67,427.07 464.5087,457.5848 402.3887,474.4848" fill="none" id="CompanyCard-to-UiPart" style="stroke:#0E4100;stroke-width:1.1;"/><polygon fill="none" points="385.02,479.21,403.9638,480.2743,400.8136,468.6952,385.02,479.21" style="stroke:#0E4100;stroke-width:1.1;"/></g><!--link StatusBarFooter to UiPart--><g class="link" data-entity-1="ent0012" data-entity-2="ent0004" data-link-type="extension" data-source-line="52" id="lnk39"><path codeLine="52" d="M169.02,320.65 C202.21,351.47 272.6317,416.8798 313.5417,454.8798" fill="none" id="StatusBarFooter-to-UiPart" style="stroke:#0E4100;stroke-width:1.1;"/><polygon fill="none" points="326.73,467.13,317.6251,450.4837,309.4583,459.2759,326.73,467.13" style="stroke:#0E4100;stroke-width:1.1;"/></g><!--link HelpWindow to UiPart--><g class="link" data-entity-1="ent0008" data-entity-2="ent0004" data-link-type="extension" data-source-line="53" id="lnk40"><path codeLine="53" d="M545.83,320.65 C509.92,351.47 433.097,417.4046 388.837,455.4046" fill="none" id="HelpWindow-to-UiPart" style="stroke:#0E4100;stroke-width:1.1;"/><polygon fill="none" points="375.18,467.13,392.7455,459.9569,384.9286,450.8522,375.18,467.13" style="stroke:#0E4100;stroke-width:1.1;"/></g><!--link RoutePanel to UiPart--><g class="link" data-entity-1="ent0005" data-entity-2="ent0004" data-link-type="extension" data-source-line="54" id="lnk41"><path codeLine="54" d="M164.03,407.92 C203.56,425.1 256.4219,448.0749 298.3419,466.2949" fill="none" id="RoutePanel-to-UiPart" style="stroke:#0E4100;stroke-width:1.1;"/><polygon fill="none" points="314.85,473.47,300.7335,460.7922,295.9502,471.7977,314.85,473.47" style="stroke:#0E4100;stroke-width:1.1;"/></g><!--link DeliveryCard to UiPart--><g class="link" data-entity-1="ent0015" data-entity-2="ent0004" data-link-type="extension" data-source-line="55" id="lnk42"><path codeLine="55" d="M781.16,404.11 C775.38,405.25 769.56,406.4 764,407.49 C623.68,435.1 474.2442,464.3994 402.8342,478.3894" fill="none" id="DeliveryCard-to-UiPart" style="stroke:#0E4100;stroke-width:1.1;"/><polygon fill="none" points="385.17,481.85,403.9877,484.2775,401.6807,472.5013,385.17,481.85" style="stroke:#0E4100;stroke-width:1.1;"/></g><!--link DeliveryCard to Model--><g class="link" data-entity-1="ent0015" data-entity-2="ent0016" data-link-type="dependency" data-source-line="57" id="lnk43"><path codeLine="57" d="M823.18,407.69 C814.46,430.88 795.385,481.6125 778.26,527.1575 C769.6975,549.93 761.6225,571.4056 755.5731,587.4931 C754.817,589.5041 754.0924,591.4308 753.4026,593.2654 C753.3163,593.4947 755.3425,588.1065 755.2574,588.333" fill="none" id="DeliveryCard-to-Model" style="stroke:#0E4100;stroke-width:1.1;stroke-dasharray:7,7;"/><polygon fill="#0E4100" points="753.1455,593.949,760.0573,586.9328,754.9054,589.269,752.5692,584.117,753.1455,593.949" style="stroke:#0E4100;stroke-width:1.1;"/></g><!--link CompanyCard to Model--><g class="link" data-entity-1="ent0011" data-entity-2="ent0016" data-link-type="dependency" data-source-line="58" id="lnk44"><path codeLine="58" d="M697.9,407.69 C703.155,430.88 714.6475,481.6125 724.9638,527.1575 C727.5428,538.5438 728.723,543.754 731.0392,553.9804" fill="none" id="CompanyCard-to-Model" style="stroke:#0E4100;stroke-width:1.1;stroke-dasharray:7,7;"/><polygon fill="#0E4100" points="732.3646,559.8322,734.2777,550.1709,731.2601,554.9557,726.4753,551.9381,732.3646,559.8322" style="stroke:#0E4100;stroke-width:1.1;"/></g><!--link UiManager to Logic--><g class="link" data-entity-1="ent0006" data-entity-2="ent0018" data-link-type="dependency" data-source-line="59" id="lnk45"><path codeLine="59" d="M699.91,117.49 C803.82,117.82 1076.89,121.16 1108,146.75 C1111.08,149.2838 1113.6927,152.2541 1115.906,155.5181 C1117.0127,157.1501 1118.0195,158.8555 1118.935,160.6165 C1119.1639,161.0567 1119.3871,161.5004 1119.6047,161.9474 C1119.7135,162.1708 1117.2634,156.9674 1117.3694,157.1924" fill="none" id="UiManager-to-Logic" style="stroke:#0E4100;stroke-width:1.1;"/><polygon fill="#0E4100" points="1119.9269,162.6201,1119.7091,152.7736,1117.7957,158.0971,1112.4723,156.1836,1119.9269,162.6201" style="stroke:#0E4100;stroke-width:1.1;"/></g><!--link MainWindow to Logic--><g class="link" data-entity-1="ent0007" data-entity-2="ent0018" data-link-type="dependency" data-source-line="60" id="lnk46"><path codeLine="60" d="M476.25,211.07 C573.46,194.08 806.3,155.86 1003.5,142.75 C1015.09,141.98 1099.66,138.66 1108,146.75 C1110.8075,149.4713 1113.218,152.552 1115.2859,155.8707 C1116.3199,157.53 1117.2682,159.2488 1118.1377,161.0119 C1118.3551,161.4527 1118.5675,161.8962 1118.7752,162.3423 C1118.8271,162.4538 1116.3767,157.1121 1116.428,157.2239" fill="none" id="MainWindow-to-Logic" style="stroke:#0E4100;stroke-width:1.1;"/><polygon fill="#0E4100" points="1118.93,162.6773,1118.8126,152.8292,1116.845,158.1328,1111.5413,156.1652,1118.93,162.6773" style="stroke:#0E4100;stroke-width:1.1;"/></g><!--link HelpWindow to CompanyListPanel--><!--link CommandBox to HelpWindow--><!--link ResultDisplay to CommandBox--><!--link StatusBarFooter to ResultDisplay--><?plantuml-src VLJHRjiW57ttLp3lhLBG8kqnoaDTLPsKA5NMQ0_RLDtQr44XO05U5tNzzm75XMitzPDzpk72FVVWJrpMecyOCVOa6EtweoZCWSiED1m9QAsUxlQyFaXc39dJ-PYib52QxBxTLvlLPdj_zpKJr0ACkOJwq6hLomPBYw9p3BJC8MInsBBQWcm5MowVYyel9ELYmQLb-X5gX_wIEruIC6J71_uP7epLKDiNJzw2jb7WNwDegthBRa4o4O4TNuDqs-hulGOkVt3PgAS8t33H8M3BJ2_i5JUTW5F4AdNiG9vMtDYyU8Ghq4r4lbkmlJD1NojbtpPrkYF8vbBzZS0L4_mFqvE20nuglYJFrgfX0jj61jzkUDCm-QhuV1sUVEbAjRp-SEch8bkQavlU6kxoCj0OfNJf1rIykKoeO8-M_WjmGcVENZbRad9UvXD8h-HYa0HDPjXx6Y_1OpgdcWpkd70yk4mtyv8lb3fL5fPpXQQZFTj1ocenFcToxA94CPkKHqgK7zn364cuAGMo3b79zp4yEjsKz5iYVEGeufAF24wE83Zl2dU26EhJ6Eu1EbC6Pu7KlDrRvre8Ft8AC-_q_dCVxi1ld_HP7ecyAopAVm2PnLY44pqQ4fP-bDP1cNpw3m00?></g></svg>
